<?xml version="1.0" encoding="utf-8" standalone="no"?>
<!DOCTYPE svg PUBLIC "-//W3C//DTD SVG 1.1//EN"
  "http://www.w3.org/Graphics/SVG/1.1/DTD/svg11.dtd">
<svg xmlns:xlink="http://www.w3.org/1999/xlink" width="211.484072pt" height="156.365805pt" viewBox="0 0 211.484072 156.365805" xmlns="http://www.w3.org/2000/svg" version="1.1">
 <metadata>
  <rdf:RDF xmlns:dc="http://purl.org/dc/elements/1.1/" xmlns:cc="http://creativecommons.org/ns#" xmlns:rdf="http://www.w3.org/1999/02/22-rdf-syntax-ns#">
   <cc:Work>
    <dc:type rdf:resource="http://purl.org/dc/dcmitype/StillImage"/>
    <dc:date>2026-10-04T07:20:57.283000</dc:date>
    <dc:format>image/svg+xml</dc:format>
    <dc:creator>
     <cc:Agent>
      <dc:title>Matplotlib v3.8.4, https://matplotlib.org/</dc:title>
     </cc:Agent>
    </dc:creator>
   </cc:Work>
  </rdf:RDF>
 </metadata>
 <defs>
  <style type="text/css">*{stroke-linejoin: round; stroke-linecap: butt}</style>
 </defs>
 <g id="figure_1">
  <g id="patch_1">
   <path d="M 0 156.365805 
L 211.484072 156.365805 
L 211.484072 0 
L 0 0 
z
" style="fill: #ffffff"/>
  </g>
  <g id="axes_1">
   <g id="patch_2">
    <path d="M 19.402812 138.222992 
L 209.324072 138.222992 
L 209.324072 2.16 
L 19.402812 2.16 
z
" style="fill: #ffffff"/>
   </g>
   <g id="matplotlib.axis_1">
    <g id="xtick_1">
     <g id="line2d_1">
      <defs>
       <path id="m437bcd0d0a" d="M 0 0 
L 0 -2.5 
" style="stroke: #000000; stroke-width: 0.8"/>
      </defs>
      <g>
       <use xlink:href="#m437bcd0d0a" x="19.402812" y="138.222992" style="stroke: #000000; stroke-width: 0.8"/>
      </g>
     </g>
     <g id="text_1">
      <!-- 0 -->
      <g transform="translate(17.456484 145.295805) scale(0.07 -0.07)">
       <defs>
        <path id="LiberationSans-30" d="M 3309 2203 
Q 3309 1100 2920 518 
Q 2531 -63 1772 -63 
Q 1013 -63 631 515 
Q 250 1094 250 2203 
Q 250 3338 620 3903 
Q 991 4469 1791 4469 
Q 2569 4469 2939 3897 
Q 3309 3325 3309 2203 
z
M 2738 2203 
Q 2738 3156 2517 3584 
Q 2297 4013 1791 4013 
Q 1272 4013 1045 3591 
Q 819 3169 819 2203 
Q 819 1266 1048 831 
Q 1278 397 1778 397 
Q 2275 397 2506 840 
Q 2738 1284 2738 2203 
z
" transform="scale(0.015625)"/>
       </defs>
       <use xlink:href="#LiberationSans-30"/>
      </g>
     </g>
    </g>
    <g id="xtick_2">
     <g id="line2d_2">
      <g>
       <use xlink:href="#m437bcd0d0a" x="80.667735" y="138.222992" style="stroke: #000000; stroke-width: 0.8"/>
      </g>
     </g>
     <g id="text_2">
      <!-- 1 -->
      <g transform="translate(78.721407 145.295805) scale(0.07 -0.07)">
       <defs>
        <path id="LiberationSans-31" d="M 488 0 
L 488 478 
L 1609 478 
L 1609 3866 
L 616 3156 
L 616 3688 
L 1656 4403 
L 2175 4403 
L 2175 478 
L 3247 478 
L 3247 0 
L 488 0 
z
" transform="scale(0.015625)"/>
       </defs>
       <use xlink:href="#LiberationSans-31"/>
      </g>
     </g>
    </g>
    <g id="xtick_3">
     <g id="line2d_3">
      <g>
       <use xlink:href="#m437bcd0d0a" x="141.932658" y="138.222992" style="stroke: #000000; stroke-width: 0.8"/>
      </g>
     </g>
     <g id="text_3">
      <!-- 2 -->
      <g transform="translate(139.986329 145.295805) scale(0.07 -0.07)">
       <defs>
        <path id="LiberationSans-32" d="M 322 0 
L 322 397 
Q 481 763 711 1042 
Q 941 1322 1194 1548 
Q 1447 1775 1695 1969 
Q 1944 2163 2144 2356 
Q 2344 2550 2467 2762 
Q 2591 2975 2591 3244 
Q 2591 3606 2378 3806 
Q 2166 4006 1788 4006 
Q 1428 4006 1195 3811 
Q 963 3616 922 3263 
L 347 3316 
Q 409 3844 795 4156 
Q 1181 4469 1788 4469 
Q 2453 4469 2811 4155 
Q 3169 3841 3169 3263 
Q 3169 3006 3051 2753 
Q 2934 2500 2703 2247 
Q 2472 1994 1819 1463 
Q 1459 1169 1246 933 
Q 1034 697 941 478 
L 3238 478 
L 3238 0 
L 322 0 
z
" transform="scale(0.015625)"/>
       </defs>
       <use xlink:href="#LiberationSans-32"/>
      </g>
     </g>
    </g>
    <g id="xtick_4">
     <g id="line2d_4">
      <g>
       <use xlink:href="#m437bcd0d0a" x="203.19758" y="138.222992" style="stroke: #000000; stroke-width: 0.8"/>
      </g>
     </g>
     <g id="text_4">
      <!-- 3 -->
      <g transform="translate(201.251252 145.295805) scale(0.07 -0.07)">
       <defs>
        <path id="LiberationSans-33" d="M 3278 1216 
Q 3278 606 2890 271 
Q 2503 -63 1784 -63 
Q 1116 -63 717 239 
Q 319 541 244 1131 
L 825 1184 
Q 938 403 1784 403 
Q 2209 403 2451 612 
Q 2694 822 2694 1234 
Q 2694 1594 2417 1795 
Q 2141 1997 1619 1997 
L 1300 1997 
L 1300 2484 
L 1606 2484 
Q 2069 2484 2323 2686 
Q 2578 2888 2578 3244 
Q 2578 3597 2370 3801 
Q 2163 4006 1753 4006 
Q 1381 4006 1151 3815 
Q 922 3625 884 3278 
L 319 3322 
Q 381 3863 767 4166 
Q 1153 4469 1759 4469 
Q 2422 4469 2789 4161 
Q 3156 3853 3156 3303 
Q 3156 2881 2920 2617 
Q 2684 2353 2234 2259 
L 2234 2247 
Q 2728 2194 3003 1916 
Q 3278 1638 3278 1216 
z
" transform="scale(0.015625)"/>
       </defs>
       <use xlink:href="#LiberationSans-33"/>
      </g>
     </g>
    </g>
    <g id="text_5">
     <!-- Position (μm) -->
     <g transform="translate(90.721567 152.545805) scale(0.08 -0.08)">
      <defs>
       <path id="LiberationSans-50" d="M 3931 3078 
Q 3931 2453 3523 2084 
Q 3116 1716 2416 1716 
L 1122 1716 
L 1122 0 
L 525 0 
L 525 4403 
L 2378 4403 
Q 3119 4403 3525 4056 
Q 3931 3709 3931 3078 
z
M 3331 3072 
Q 3331 3925 2306 3925 
L 1122 3925 
L 1122 2188 
L 2331 2188 
Q 3331 2188 3331 3072 
z
" transform="scale(0.015625)"/>
       <path id="LiberationSans-6f" d="M 3291 1694 
Q 3291 806 2900 371 
Q 2509 -63 1766 -63 
Q 1025 -63 647 389 
Q 269 841 269 1694 
Q 269 3444 1784 3444 
Q 2559 3444 2925 3017 
Q 3291 2591 3291 1694 
z
M 2700 1694 
Q 2700 2394 2492 2711 
Q 2284 3028 1794 3028 
Q 1300 3028 1079 2704 
Q 859 2381 859 1694 
Q 859 1025 1076 689 
Q 1294 353 1759 353 
Q 2266 353 2483 678 
Q 2700 1003 2700 1694 
z
" transform="scale(0.015625)"/>
       <path id="LiberationSans-73" d="M 2969 934 
Q 2969 456 2608 196 
Q 2247 -63 1597 -63 
Q 966 -63 623 145 
Q 281 353 178 794 
L 675 891 
Q 747 619 972 492 
Q 1197 366 1597 366 
Q 2025 366 2223 497 
Q 2422 628 2422 891 
Q 2422 1091 2284 1216 
Q 2147 1341 1841 1422 
L 1438 1528 
Q 953 1653 748 1773 
Q 544 1894 428 2066 
Q 313 2238 313 2488 
Q 313 2950 642 3192 
Q 972 3434 1603 3434 
Q 2163 3434 2492 3237 
Q 2822 3041 2909 2606 
L 2403 2544 
Q 2356 2769 2151 2889 
Q 1947 3009 1603 3009 
Q 1222 3009 1040 2893 
Q 859 2778 859 2544 
Q 859 2400 934 2306 
Q 1009 2213 1156 2147 
Q 1303 2081 1775 1966 
Q 2222 1853 2419 1758 
Q 2616 1663 2730 1547 
Q 2844 1431 2906 1279 
Q 2969 1128 2969 934 
z
" transform="scale(0.015625)"/>
       <path id="LiberationSans-69" d="M 428 4100 
L 428 4638 
L 991 4638 
L 991 4100 
L 428 4100 
z
M 428 0 
L 428 3381 
L 991 3381 
L 991 0 
L 428 0 
z
" transform="scale(0.015625)"/>
       <path id="LiberationSans-74" d="M 1731 25 
Q 1453 -50 1163 -50 
Q 488 -50 488 716 
L 488 2972 
L 97 2972 
L 97 3381 
L 509 3381 
L 675 4138 
L 1050 4138 
L 1050 3381 
L 1675 3381 
L 1675 2972 
L 1050 2972 
L 1050 838 
Q 1050 594 1129 495 
Q 1209 397 1406 397 
Q 1519 397 1731 441 
L 1731 25 
z
" transform="scale(0.015625)"/>
       <path id="LiberationSans-6e" d="M 2578 0 
L 2578 2144 
Q 2578 2478 2512 2662 
Q 2447 2847 2303 2928 
Q 2159 3009 1881 3009 
Q 1475 3009 1240 2731 
Q 1006 2453 1006 1959 
L 1006 0 
L 444 0 
L 444 2659 
Q 444 3250 425 3381 
L 956 3381 
Q 959 3366 962 3297 
Q 966 3228 970 3139 
Q 975 3050 981 2803 
L 991 2803 
Q 1184 3153 1439 3298 
Q 1694 3444 2072 3444 
Q 2628 3444 2886 3167 
Q 3144 2891 3144 2253 
L 3144 0 
L 2578 0 
z
" transform="scale(0.015625)"/>
       <path id="LiberationSans-20" transform="scale(0.015625)"/>
       <path id="LiberationSans-28" d="M 397 1663 
Q 397 2566 680 3284 
Q 963 4003 1550 4638 
L 2094 4638 
Q 1509 3988 1236 3256 
Q 963 2525 963 1656 
Q 963 791 1233 62 
Q 1503 -666 2094 -1325 
L 1550 -1325 
Q 959 -688 678 32 
Q 397 753 397 1650 
L 397 1663 
z
" transform="scale(0.015625)"/>
       <path id="LiberationSans-3bc" d="M 2694 0 
Q 2688 38 2677 255 
Q 2666 472 2663 594 
L 2650 594 
Q 2463 225 2255 81 
Q 2047 -63 1731 -63 
Q 1475 -63 1287 37 
Q 1100 138 1000 319 
L 988 319 
Q 1000 184 1000 -63 
L 1000 -1228 
L 431 -1228 
L 431 3381 
L 1000 3381 
L 1000 1369 
Q 1000 866 1197 622 
Q 1394 378 1800 378 
Q 2188 378 2411 662 
Q 2634 947 2634 1453 
L 2634 3381 
L 3200 3381 
L 3200 728 
Q 3200 131 3219 0 
L 2694 0 
z
" transform="scale(0.015625)"/>
       <path id="LiberationSans-6d" d="M 2400 0 
L 2400 2144 
Q 2400 2634 2265 2821 
Q 2131 3009 1781 3009 
Q 1422 3009 1212 2734 
Q 1003 2459 1003 1959 
L 1003 0 
L 444 0 
L 444 2659 
Q 444 3250 425 3381 
L 956 3381 
Q 959 3366 962 3297 
Q 966 3228 970 3139 
Q 975 3050 981 2803 
L 991 2803 
Q 1172 3163 1406 3303 
Q 1641 3444 1978 3444 
Q 2363 3444 2586 3291 
Q 2809 3138 2897 2803 
L 2906 2803 
Q 3081 3144 3329 3294 
Q 3578 3444 3931 3444 
Q 4444 3444 4676 3166 
Q 4909 2888 4909 2253 
L 4909 0 
L 4353 0 
L 4353 2144 
Q 4353 2634 4218 2821 
Q 4084 3009 3734 3009 
Q 3366 3009 3161 2736 
Q 2956 2463 2956 1959 
L 2956 0 
L 2400 0 
z
" transform="scale(0.015625)"/>
       <path id="LiberationSans-29" d="M 1734 1650 
Q 1734 747 1451 28 
Q 1169 -691 581 -1325 
L 38 -1325 
Q 625 -669 897 57 
Q 1169 784 1169 1656 
Q 1169 2528 895 3256 
Q 622 3984 38 4638 
L 581 4638 
Q 1172 4000 1453 3279 
Q 1734 2559 1734 1663 
L 1734 1650 
z
" transform="scale(0.015625)"/>
      </defs>
      <use xlink:href="#LiberationSans-50"/>
      <use xlink:href="#LiberationSans-6f" x="66.699219"/>
      <use xlink:href="#LiberationSans-73" x="122.314453"/>
      <use xlink:href="#LiberationSans-69" x="172.314453"/>
      <use xlink:href="#LiberationSans-74" x="194.53125"/>
      <use xlink:href="#LiberationSans-69" x="222.314453"/>
      <use xlink:href="#LiberationSans-6f" x="244.53125"/>
      <use xlink:href="#LiberationSans-6e" x="300.146484"/>
      <use xlink:href="#LiberationSans-20" x="355.761719"/>
      <use xlink:href="#LiberationSans-28" x="383.544922"/>
      <use xlink:href="#LiberationSans-3bc" x="416.845703"/>
      <use xlink:href="#LiberationSans-6d" x="474.462891"/>
      <use xlink:href="#LiberationSans-29" x="557.763672"/>
     </g>
    </g>
   </g>
   <g id="matplotlib.axis_2">
    <g id="ytick_1">
     <g id="line2d_5">
      <defs>
       <path id="m0410a42882" d="M 0 0 
L 2.5 0 
" style="stroke: #000000; stroke-width: 0.8"/>
      </defs>
      <g>
       <use xlink:href="#m0410a42882" x="19.402812" y="138.222992" style="stroke: #000000; stroke-width: 0.8"/>
      </g>
     </g>
     <g id="text_6">
      <!-- 0 -->
      <g transform="translate(13.510156 140.759398) scale(0.07 -0.07)">
       <use xlink:href="#LiberationSans-30"/>
      </g>
     </g>
    </g>
    <g id="ytick_2">
     <g id="line2d_6">
      <g>
       <use xlink:href="#m0410a42882" x="19.402812" y="96.357456" style="stroke: #000000; stroke-width: 0.8"/>
      </g>
     </g>
     <g id="text_7">
      <!-- 20 -->
      <g transform="translate(9.6175 98.893862) scale(0.07 -0.07)">
       <use xlink:href="#LiberationSans-32"/>
       <use xlink:href="#LiberationSans-30" x="55.615234"/>
      </g>
     </g>
    </g>
    <g id="ytick_3">
     <g id="line2d_7">
      <g>
       <use xlink:href="#m0410a42882" x="19.402812" y="54.49192" style="stroke: #000000; stroke-width: 0.8"/>
      </g>
     </g>
     <g id="text_8">
      <!-- 40 -->
      <g transform="translate(9.6175 57.028326) scale(0.07 -0.07)">
       <defs>
        <path id="LiberationSans-34" d="M 2753 997 
L 2753 0 
L 2222 0 
L 2222 997 
L 147 997 
L 147 1434 
L 2163 4403 
L 2753 4403 
L 2753 1441 
L 3372 1441 
L 3372 997 
L 2753 997 
z
M 2222 3769 
Q 2216 3750 2134 3603 
Q 2053 3456 2013 3397 
L 884 1734 
L 716 1503 
L 666 1441 
L 2222 1441 
L 2222 3769 
z
" transform="scale(0.015625)"/>
       </defs>
       <use xlink:href="#LiberationSans-34"/>
       <use xlink:href="#LiberationSans-30" x="55.615234"/>
      </g>
     </g>
    </g>
    <g id="ytick_4">
     <g id="line2d_8">
      <g>
       <use xlink:href="#m0410a42882" x="19.402812" y="12.626384" style="stroke: #000000; stroke-width: 0.8"/>
      </g>
     </g>
     <g id="text_9">
      <!-- 60 -->
      <g transform="translate(9.6175 15.16279) scale(0.07 -0.07)">
       <defs>
        <path id="LiberationSans-36" d="M 3278 1441 
Q 3278 744 2900 340 
Q 2522 -63 1856 -63 
Q 1113 -63 719 490 
Q 325 1044 325 2100 
Q 325 3244 734 3856 
Q 1144 4469 1900 4469 
Q 2897 4469 3156 3572 
L 2619 3475 
Q 2453 4013 1894 4013 
Q 1413 4013 1148 3564 
Q 884 3116 884 2266 
Q 1038 2550 1316 2698 
Q 1594 2847 1953 2847 
Q 2563 2847 2920 2465 
Q 3278 2084 3278 1441 
z
M 2706 1416 
Q 2706 1894 2472 2153 
Q 2238 2413 1819 2413 
Q 1425 2413 1183 2183 
Q 941 1953 941 1550 
Q 941 1041 1192 716 
Q 1444 391 1838 391 
Q 2244 391 2475 664 
Q 2706 938 2706 1416 
z
" transform="scale(0.015625)"/>
       </defs>
       <use xlink:href="#LiberationSans-36"/>
       <use xlink:href="#LiberationSans-30" x="55.615234"/>
      </g>
     </g>
    </g>
    <g id="text_10">
     <!-- Height (nm) -->
     <g transform="translate(7.9575 91.084621) rotate(-90) scale(0.08 -0.08)">
      <defs>
       <path id="LiberationSans-48" d="M 3503 0 
L 3503 2041 
L 1122 2041 
L 1122 0 
L 525 0 
L 525 4403 
L 1122 4403 
L 1122 2541 
L 3503 2541 
L 3503 4403 
L 4100 4403 
L 4100 0 
L 3503 0 
z
" transform="scale(0.015625)"/>
       <path id="LiberationSans-65" d="M 863 1572 
Q 863 991 1103 675 
Q 1344 359 1806 359 
Q 2172 359 2392 506 
Q 2613 653 2691 878 
L 3184 738 
Q 2881 -63 1806 -63 
Q 1056 -63 664 384 
Q 272 831 272 1713 
Q 272 2550 664 2997 
Q 1056 3444 1784 3444 
Q 3275 3444 3275 1647 
L 3275 1572 
L 863 1572 
z
M 2694 2003 
Q 2647 2538 2422 2783 
Q 2197 3028 1775 3028 
Q 1366 3028 1127 2754 
Q 888 2481 869 2003 
L 2694 2003 
z
" transform="scale(0.015625)"/>
       <path id="LiberationSans-67" d="M 1713 -1328 
Q 1159 -1328 831 -1111 
Q 503 -894 409 -494 
L 975 -413 
Q 1031 -647 1223 -773 
Q 1416 -900 1728 -900 
Q 2569 -900 2569 84 
L 2569 628 
L 2563 628 
Q 2403 303 2125 139 
Q 1847 -25 1475 -25 
Q 853 -25 561 387 
Q 269 800 269 1684 
Q 269 2581 583 3007 
Q 897 3434 1538 3434 
Q 1897 3434 2161 3270 
Q 2425 3106 2569 2803 
L 2575 2803 
Q 2575 2897 2587 3128 
Q 2600 3359 2613 3381 
L 3147 3381 
Q 3128 3213 3128 2681 
L 3128 97 
Q 3128 -1328 1713 -1328 
z
M 2569 1691 
Q 2569 2103 2456 2401 
Q 2344 2700 2139 2858 
Q 1934 3016 1675 3016 
Q 1244 3016 1047 2703 
Q 850 2391 850 1691 
Q 850 997 1034 694 
Q 1219 391 1666 391 
Q 1931 391 2137 547 
Q 2344 703 2456 995 
Q 2569 1288 2569 1691 
z
" transform="scale(0.015625)"/>
       <path id="LiberationSans-68" d="M 991 2803 
Q 1172 3134 1426 3289 
Q 1681 3444 2072 3444 
Q 2622 3444 2883 3170 
Q 3144 2897 3144 2253 
L 3144 0 
L 2578 0 
L 2578 2144 
Q 2578 2500 2512 2673 
Q 2447 2847 2297 2928 
Q 2147 3009 1881 3009 
Q 1484 3009 1245 2734 
Q 1006 2459 1006 1994 
L 1006 0 
L 444 0 
L 444 4638 
L 1006 4638 
L 1006 3431 
Q 1006 3241 995 3037 
Q 984 2834 981 2803 
L 991 2803 
z
" transform="scale(0.015625)"/>
      </defs>
      <use xlink:href="#LiberationSans-48"/>
      <use xlink:href="#LiberationSans-65" x="72.216797"/>
      <use xlink:href="#LiberationSans-69" x="127.832031"/>
      <use xlink:href="#LiberationSans-67" x="150.048828"/>
      <use xlink:href="#LiberationSans-68" x="205.664062"/>
      <use xlink:href="#LiberationSans-74" x="261.279297"/>
      <use xlink:href="#LiberationSans-20" x="289.0625"/>
      <use xlink:href="#LiberationSans-28" x="316.845703"/>
      <use xlink:href="#LiberationSans-6e" x="350.146484"/>
      <use xlink:href="#LiberationSans-6d" x="405.761719"/>
      <use xlink:href="#LiberationSans-29" x="489.0625"/>
     </g>
    </g>
   </g>
   <g id="line2d_9">
    <path d="M 19.402812 120.775557 
L 19.647872 120.100142 
L 20.628111 113.096198 
L 22.343529 93.234946 
L 23.568827 74.86874 
L 24.058947 68.04549 
L 25.284245 51.425338 
L 25.529305 49.620646 
L 26.264484 42.540023 
L 26.509544 41.946376 
L 26.999663 38.321837 
L 27.489782 35.184539 
L 27.979902 33.695785 
L 28.224961 33.772585 
L 28.470021 32.551369 
L 28.715081 33.021901 
L 28.96014 32.904014 
L 29.695319 35.733172 
L 29.940379 37.842558 
L 30.185439 38.178943 
L 31.165678 45.479449 
L 31.655797 49.551786 
L 32.145916 54.901477 
L 33.371215 67.517172 
L 37.29217 108.194213 
L 39.007588 122.203936 
L 39.497707 123.202654 
L 39.742767 124.109338 
L 40.232886 124.713425 
L 40.477946 125.816397 
L 40.723006 126.31971 
L 40.968065 126.537444 
L 41.213125 125.613915 
L 41.458185 125.556102 
L 41.703244 126.829272 
L 41.948304 126.819168 
L 42.193364 126.690485 
L 42.683483 127.351076 
L 42.928543 127.443381 
L 43.663722 128.659112 
L 43.908782 128.393531 
L 44.153841 129.93215 
L 44.398901 130.117911 
L 44.643961 130.841107 
L 44.88902 130.495598 
L 45.13408 131.807955 
L 45.37914 131.803402 
L 45.624199 131.112177 
L 45.869259 131.750005 
L 46.114319 131.850316 
L 46.359378 131.816859 
L 46.604438 130.781087 
L 46.849498 130.838715 
L 47.094557 129.559354 
L 47.339617 129.343267 
L 47.584677 128.75447 
L 47.829737 128.718032 
L 48.074796 127.525205 
L 48.319856 127.13157 
L 48.564916 127.110203 
L 49.055035 125.968701 
L 49.300095 125.821513 
L 49.545154 125.06782 
L 49.790214 125.035686 
L 50.035274 124.262744 
L 50.280333 124.575969 
L 50.525393 123.777981 
L 50.770453 124.26066 
L 51.260572 122.232926 
L 51.505632 121.91153 
L 51.995751 119.098837 
L 52.240811 118.84765 
L 52.485871 115.944574 
L 52.73093 114.571713 
L 53.466109 107.517602 
L 54.201288 99.959015 
L 54.446348 97.623863 
L 54.691408 93.844539 
L 55.181527 89.526809 
L 55.916706 81.398676 
L 56.161766 80.960055 
L 56.896945 75.287886 
L 57.142005 73.811575 
L 57.387064 73.438995 
L 57.877184 70.616476 
L 58.122244 70.225312 
L 58.367303 70.440537 
L 58.857423 69.602667 
L 59.102482 70.968507 
L 59.347542 71.086895 
L 59.592602 72.265104 
L 59.837661 72.782092 
L 60.327781 75.809205 
L 61.798139 84.648698 
L 62.533318 90.887642 
L 62.778378 91.408456 
L 63.023437 94.467892 
L 63.513557 97.831027 
L 63.758616 99.879309 
L 64.003676 100.95572 
L 65.228975 109.580095 
L 65.719094 110.616507 
L 65.964154 112.714232 
L 66.209213 112.790367 
L 66.699333 115.21385 
L 66.944392 115.334863 
L 67.189452 116.50724 
L 67.434512 116.563806 
L 67.924631 118.693889 
L 68.169691 118.289854 
L 68.414751 119.436678 
L 68.65981 119.118614 
L 68.90487 119.541375 
L 69.14993 120.186655 
L 69.394989 120.153987 
L 69.640049 120.268602 
L 69.885109 119.921949 
L 70.130168 120.072601 
L 70.375228 119.765147 
L 70.620288 119.001363 
L 70.865347 118.710501 
L 71.110407 117.423838 
L 71.355467 117.035545 
L 71.845586 115.217789 
L 72.090646 114.666976 
L 72.335706 113.117412 
L 72.580765 113.647672 
L 72.825825 113.780577 
L 73.070885 113.527419 
L 73.315944 115.005035 
L 73.561004 115.715653 
L 73.806064 116.883222 
L 74.051123 117.476629 
L 74.786302 121.067567 
L 75.031362 121.663638 
L 75.276422 123.073162 
L 75.766541 123.785214 
L 76.011601 124.708151 
L 76.50172 125.284713 
L 76.74678 126.243216 
L 76.99184 126.416963 
L 77.236899 126.800669 
L 77.481959 126.82512 
L 77.727019 127.036853 
L 78.217138 128.595964 
L 78.462198 129.187888 
L 78.707258 128.516867 
L 78.952317 129.240702 
L 79.197377 129.262189 
L 79.442437 128.881627 
L 79.687496 130.119499 
L 80.177616 128.962738 
L 80.422675 128.536657 
L 80.667735 128.571147 
L 80.912795 127.578778 
L 81.157854 127.445671 
L 81.647974 124.672189 
L 81.893033 125.42125 
L 82.138093 124.343957 
L 82.383153 123.91611 
L 82.628213 122.890753 
L 82.873272 122.352572 
L 83.118332 122.201187 
L 83.853511 120.824977 
L 84.098571 121.743366 
L 84.34363 121.454687 
L 84.58869 121.427207 
L 84.83375 121.816576 
L 85.078809 121.650416 
L 85.323869 121.90484 
L 85.568929 120.989772 
L 85.813989 120.945378 
L 86.059048 121.092802 
L 86.304108 121.488531 
L 86.549168 119.732092 
L 86.794227 119.908345 
L 87.039287 118.88012 
L 87.284347 118.606606 
L 87.529406 117.977181 
L 87.774466 118.172168 
L 88.509645 116.385258 
L 88.754705 116.499542 
L 88.999764 115.761569 
L 89.244824 116.178556 
L 89.489884 115.510974 
L 89.734944 115.707404 
L 89.980003 116.611301 
L 90.225063 115.446343 
L 90.470123 115.725628 
L 90.715182 116.354379 
L 90.960242 116.673514 
L 91.205302 116.532364 
L 91.450361 117.017247 
L 91.695421 116.734594 
L 91.940481 117.198796 
L 92.18554 117.051223 
L 92.4306 117.380833 
L 92.67566 117.017479 
L 92.92072 117.181933 
L 93.165779 117.625298 
L 93.410839 117.540813 
L 93.655899 116.488846 
L 93.900958 116.389529 
L 94.146018 115.595144 
L 94.391078 115.432041 
L 94.636137 113.981576 
L 94.881197 113.419343 
L 95.371316 109.253816 
L 95.616376 107.761959 
L 96.841675 92.620483 
L 99.292271 53.208499 
L 99.782391 48.066362 
L 100.027451 45.125169 
L 100.51757 42.996141 
L 100.76263 42.209897 
L 101.007689 41.030467 
L 101.252749 41.433897 
L 101.497809 41.575487 
L 101.987928 44.840656 
L 102.723107 52.647992 
L 103.948406 72.971666 
L 105.173704 95.061807 
L 106.644062 112.3664 
L 107.379241 117.755642 
L 108.60454 121.995007 
L 108.849599 122.235587 
L 109.094659 122.846261 
L 109.339719 122.745113 
L 109.584778 122.860224 
L 110.319958 121.34772 
L 110.565017 121.172289 
L 111.545256 116.848063 
L 112.770554 109.954715 
L 113.505734 104.633206 
L 113.750793 103.794909 
L 114.485972 99.164501 
L 114.731032 98.463758 
L 114.976092 96.688588 
L 115.221151 96.075141 
L 115.711271 92.940332 
L 115.95633 92.204946 
L 116.20139 91.935953 
L 117.181629 88.673288 
L 117.426689 89.047079 
L 117.671748 88.028693 
L 117.916808 88.491617 
L 118.161868 87.436124 
L 118.406927 88.150064 
L 118.651987 87.839531 
L 118.897047 89.395705 
L 119.142106 89.827605 
L 119.877285 93.831925 
L 120.122345 93.805324 
L 120.367405 95.289732 
L 120.612465 96.039775 
L 121.347644 101.249021 
L 121.837763 102.568378 
L 122.082823 105.483015 
L 124.28836 114.330518 
L 125.023539 115.967583 
L 125.268599 115.980024 
L 125.758718 116.957 
L 126.003778 116.892464 
L 126.248837 117.979633 
L 126.493897 118.236657 
L 126.738957 118.313087 
L 127.229076 118.071889 
L 127.474136 117.631325 
L 127.719196 117.58533 
L 127.964255 117.180903 
L 128.209315 117.262744 
L 128.454375 116.788244 
L 128.699434 116.738909 
L 128.944494 115.534696 
L 129.189554 115.125656 
L 129.434613 115.279398 
L 129.679673 115.130634 
L 129.924733 114.32142 
L 130.169792 114.50091 
L 130.414852 113.965431 
L 130.659912 114.402627 
L 130.904972 113.81617 
L 131.150031 115.021438 
L 131.395091 114.06834 
L 131.640151 114.321196 
L 131.88521 114.355524 
L 132.13027 114.873363 
L 132.37533 114.55436 
L 132.620389 115.274863 
L 132.865449 115.541908 
L 133.600628 113.009349 
L 133.845688 112.674539 
L 135.070986 102.211272 
L 135.806165 94.862806 
L 138.501822 71.901177 
L 139.237001 63.367622 
L 141.197478 33.130606 
L 141.687598 26.900223 
L 142.177717 21.865639 
L 142.422777 21.430023 
L 142.912896 18.880421 
L 143.157956 18.559846 
L 143.403016 18.740623 
L 143.648075 19.672146 
L 143.893135 19.726857 
L 144.138195 21.725787 
L 144.383254 22.37556 
L 145.118434 29.353135 
L 145.363493 31.792283 
L 146.343732 45.287685 
L 148.794329 78.513382 
L 149.284448 83.478838 
L 150.019627 90.558357 
L 150.264687 91.04834 
L 150.754806 94.71768 
L 150.999866 95.311111 
L 152.470224 101.720705 
L 152.960344 103.236152 
L 153.205403 104.686942 
L 153.450463 105.257236 
L 153.695523 106.462611 
L 153.940582 106.697263 
L 154.185642 106.60647 
L 154.430702 106.936521 
L 154.920821 108.168355 
L 155.410941 107.464545 
L 155.656 107.794263 
L 155.90106 108.375169 
L 156.391179 106.855018 
L 156.636239 106.480703 
L 157.371418 105.994483 
L 157.861537 106.479788 
L 158.106597 106.480766 
L 158.351657 107.024178 
L 158.596716 106.70802 
L 158.841776 107.063313 
L 159.331896 106.385317 
L 159.576955 107.411538 
L 160.312134 106.023329 
L 160.557194 107.216301 
L 160.802254 106.825011 
L 161.047313 106.694527 
L 161.292373 107.001845 
L 161.537433 106.744811 
L 161.782492 106.249972 
L 162.027552 106.988032 
L 162.272612 105.867508 
L 162.517672 105.775649 
L 162.762731 105.246321 
L 163.007791 105.238008 
L 163.252851 104.611183 
L 163.49791 104.430896 
L 163.74297 103.941112 
L 164.233089 101.911889 
L 164.478149 102.750533 
L 164.723209 100.582948 
L 164.968268 101.228131 
L 165.213328 100.151835 
L 165.458388 99.918601 
L 166.193567 98.366502 
L 166.438627 97.106498 
L 166.683686 97.017882 
L 166.928746 95.375022 
L 167.663925 93.900411 
L 168.154044 91.2687 
L 168.399104 90.866632 
L 169.379343 85.923887 
L 169.869462 81.308003 
L 172.320059 59.561257 
L 172.810179 57.758603 
L 173.055238 58.354045 
L 173.790417 61.188094 
L 174.525596 69.7086 
L 175.750895 89.083898 
L 176.486074 99.800954 
L 177.466313 109.576889 
L 177.711372 110.318771 
L 177.956432 111.526412 
L 178.201492 112.171746 
L 178.691611 114.361592 
L 178.936671 114.149048 
L 179.42679 114.512034 
L 179.67185 115.582862 
L 179.91691 115.419588 
L 180.407029 114.584174 
L 180.652089 114.902463 
L 180.897148 114.155758 
L 181.632327 113.047379 
L 182.122447 111.460402 
L 182.367506 111.379486 
L 182.857626 109.38057 
L 183.102685 108.922667 
L 183.347745 107.923375 
L 183.592805 107.443405 
L 184.082924 105.39232 
L 184.573044 104.568148 
L 184.818103 104.510099 
L 185.063163 104.111186 
L 185.308223 102.637739 
L 185.553282 102.381406 
L 185.798342 101.679646 
L 186.043402 102.286602 
L 186.288461 101.497935 
L 186.778581 101.607448 
L 187.023641 100.625412 
L 187.2687 100.835173 
L 187.51376 100.509265 
L 187.75882 99.69656 
L 188.003879 100.045182 
L 188.248939 99.48636 
L 188.493999 99.418278 
L 188.984118 98.192092 
L 189.229178 98.601125 
L 190.209417 96.481941 
L 190.454476 95.342966 
L 190.699536 95.048363 
L 190.944596 95.460446 
L 191.189655 95.400728 
L 191.434715 94.530984 
L 191.679775 94.524533 
L 191.924834 94.63557 
L 192.169894 93.779101 
L 192.414954 94.206714 
L 192.905073 93.802506 
L 193.150133 94.552047 
L 193.395192 94.479955 
L 193.640252 93.221587 
L 193.885312 93.3725 
L 194.130372 93.909356 
L 194.375431 93.859344 
L 194.865551 93.478455 
L 195.11061 92.534645 
L 195.35567 92.704647 
L 195.60073 92.497168 
L 195.845789 92.052551 
L 196.090849 92.305481 
L 197.071088 90.418503 
L 197.316148 90.308503 
L 197.561207 90.582275 
L 197.806267 90.018763 
L 198.051327 90.058082 
L 198.296386 89.118008 
L 198.786506 89.997427 
L 199.276625 89.236226 
L 200.011804 91.717482 
L 200.256864 92.258854 
L 200.501923 92.425265 
L 200.746983 93.477951 
L 200.992043 93.12428 
L 201.237103 93.967102 
L 201.972282 94.618122 
L 202.217341 95.334911 
L 202.462401 95.690549 
L 202.707461 95.26442 
L 203.19758 96.747147 
L 203.44264 96.890351 
L 203.687699 97.344347 
L 203.932759 98.173704 
L 204.177819 97.680641 
L 204.667938 99.590828 
L 205.648177 101.826326 
L 205.893237 103.066199 
L 206.138296 103.343382 
L 206.383356 103.3509 
L 206.628416 104.258516 
L 206.873475 104.672873 
L 207.118535 105.370612 
L 207.363595 105.701896 
L 207.363595 105.701896 
" clip-path="url(#p6d7e70a0b2)" style="fill: none; stroke: #0072b2; stroke-width: 0.85; stroke-linecap: square"/>
   </g>
   <g id="line2d_10">
    <path d="M 19.402812 134.316819 
L 19.647872 134.608402 
L 20.383051 134.27942 
L 20.628111 133.792381 
L 20.873171 134.526134 
L 21.11823 133.810118 
L 21.36329 134.025048 
L 21.853409 133.400409 
L 23.078708 131.211197 
L 23.568827 128.593011 
L 23.813887 128.466386 
L 24.058947 127.684565 
L 24.549066 125.423621 
L 24.794126 125.948298 
L 25.039185 125.094037 
L 25.284245 125.037399 
L 25.529305 124.42738 
L 25.774364 124.454587 
L 26.264484 124.294363 
L 26.509544 125.674951 
L 26.754603 125.645107 
L 26.999663 126.159929 
L 27.244723 126.282965 
L 27.979902 128.686732 
L 28.470021 129.461856 
L 28.96014 130.849326 
L 29.2052 131.380525 
L 29.45026 130.85338 
L 29.695319 131.833119 
L 29.940379 131.015516 
L 30.185439 131.261059 
L 30.430499 131.235288 
L 30.675558 130.95168 
L 30.920618 130.189739 
L 31.165678 130.191586 
L 31.410737 129.872827 
L 31.655797 128.325149 
L 31.900857 128.064871 
L 32.145916 128.083534 
L 32.881095 125.955877 
L 33.126155 125.466715 
L 33.371215 124.21609 
L 33.616275 124.103826 
L 33.861334 122.715868 
L 34.106394 122.622244 
L 34.596513 121.379929 
L 34.841573 119.556802 
L 35.086633 119.746913 
L 35.331692 118.433886 
L 35.576752 118.354708 
L 35.821812 117.670715 
L 36.066871 117.55938 
L 36.80205 115.586536 
L 37.04711 115.78164 
L 37.29217 115.600885 
L 37.782289 114.667557 
L 38.027349 114.428682 
L 38.272409 113.169906 
L 38.517468 113.557427 
L 38.762528 113.600642 
L 39.007588 113.064332 
L 39.252647 113.187816 
L 39.497707 112.112801 
L 40.232886 110.851506 
L 40.477946 109.380251 
L 41.703244 105.955158 
L 41.948304 106.062387 
L 42.193364 105.393053 
L 42.438423 105.608241 
L 42.683483 106.420268 
L 42.928543 106.342868 
L 43.173602 107.000971 
L 43.418662 106.786782 
L 43.908782 107.909125 
L 44.153841 108.631817 
L 44.398901 108.758997 
L 44.643961 109.775592 
L 45.13408 110.375684 
L 45.37914 110.828274 
L 45.624199 110.613353 
L 46.114319 112.56733 
L 46.604438 112.131232 
L 46.849498 112.16768 
L 47.339617 114.042271 
L 47.584677 114.661374 
L 47.829737 114.754712 
L 48.074796 116.529447 
L 48.319856 117.005325 
L 48.564916 117.068874 
L 48.809975 118.423301 
L 49.055035 118.975652 
L 49.300095 120.520644 
L 49.545154 120.566654 
L 50.035274 122.815397 
L 50.280333 122.866523 
L 50.525393 123.320905 
L 51.015513 123.133401 
L 51.260572 124.093145 
L 51.750692 123.030397 
L 51.995751 124.226077 
L 52.240811 123.66817 
L 52.73093 125.571996 
L 52.97599 125.102773 
L 53.22105 125.040774 
L 53.466109 126.454232 
L 53.711169 126.387874 
L 53.956229 126.922833 
L 54.201288 127.778034 
L 54.446348 127.36688 
L 54.691408 128.196951 
L 54.936468 127.330525 
L 55.181527 128.963964 
L 55.426587 128.665816 
L 55.671647 128.711275 
L 55.916706 128.9427 
L 56.161766 129.546764 
L 56.651885 129.865477 
L 56.896945 129.92606 
L 57.142005 129.081148 
L 57.387064 130.258423 
L 57.632124 129.76529 
L 57.877184 130.255054 
L 58.367303 129.182972 
L 58.612363 129.35228 
L 58.857423 128.670248 
L 59.102482 128.323692 
L 59.347542 127.637593 
L 59.592602 127.799071 
L 59.837661 127.317877 
L 60.082721 126.291806 
L 60.327781 125.776619 
L 60.8179 124.482005 
L 61.06296 123.806265 
L 61.553079 123.233942 
L 62.043199 122.554917 
L 62.288258 122.721905 
L 62.533318 123.741897 
L 62.778378 124.01192 
L 63.268497 124.832061 
L 63.513557 125.855311 
L 63.758616 126.163897 
L 64.983915 130.811429 
L 65.719094 133.124841 
L 65.964154 132.874755 
L 66.209213 132.811347 
L 66.454273 133.302295 
L 66.699333 133.405472 
L 66.944392 132.860953 
L 67.189452 133.396619 
L 67.434512 131.963364 
L 67.679571 132.322317 
L 68.169691 131.273737 
L 68.414751 129.270797 
L 68.65981 129.451405 
L 68.90487 128.08623 
L 69.14993 128.153436 
L 69.394989 127.332525 
L 69.640049 127.054663 
L 69.885109 126.606588 
L 70.130168 125.65157 
L 70.620288 125.225377 
L 70.865347 125.326708 
L 71.110407 125.109449 
L 71.355467 124.70653 
L 71.600526 124.545609 
L 71.845586 124.773978 
L 72.090646 125.23921 
L 72.580765 124.753797 
L 72.825825 124.69652 
L 73.315944 123.657896 
L 73.806064 123.319398 
L 74.051123 121.879029 
L 74.296183 121.826887 
L 74.541243 121.217856 
L 74.786302 119.58607 
L 75.031362 118.89304 
L 75.766541 115.573394 
L 76.011601 113.112029 
L 76.256661 112.364694 
L 76.50172 111.073119 
L 76.74678 108.760074 
L 77.236899 106.324913 
L 79.197377 96.288982 
L 79.442437 95.869346 
L 79.687496 94.16344 
L 79.932556 93.827795 
L 81.157854 90.913704 
L 81.402914 89.753773 
L 81.647974 89.840609 
L 81.893033 88.880698 
L 82.383153 88.07299 
L 82.873272 88.494702 
L 83.118332 89.367059 
L 83.608451 88.918525 
L 84.34363 90.588493 
L 84.58869 90.097252 
L 85.323869 91.60247 
L 85.568929 91.377595 
L 86.059048 92.110924 
L 86.304108 91.977395 
L 86.549168 92.273233 
L 86.794227 93.248565 
L 87.039287 93.305908 
L 87.284347 93.172345 
L 87.529406 93.604601 
L 87.774466 94.297802 
L 88.019526 94.337472 
L 88.264585 94.957298 
L 88.509645 95.003233 
L 88.754705 95.681895 
L 88.999764 94.882007 
L 89.244824 94.865187 
L 89.489884 95.72481 
L 89.734944 95.992811 
L 89.980003 94.727024 
L 90.225063 95.108441 
L 90.470123 94.982192 
L 90.715182 94.371539 
L 90.960242 95.033291 
L 91.205302 94.30052 
L 91.450361 94.097329 
L 91.695421 92.800049 
L 91.940481 93.301913 
L 92.67566 91.526902 
L 92.92072 91.311226 
L 93.165779 91.410737 
L 93.410839 91.0649 
L 93.655899 89.957858 
L 93.900958 89.763593 
L 94.146018 90.042772 
L 94.391078 89.887074 
L 94.636137 89.598761 
L 94.881197 88.864255 
L 95.126257 88.872921 
L 95.371316 89.570938 
L 95.616376 88.771959 
L 95.861436 88.492278 
L 96.106496 89.023285 
L 96.351555 88.330292 
L 96.596615 88.930277 
L 96.841675 88.228925 
L 97.086734 88.19067 
L 97.331794 88.008474 
L 97.576854 87.6095 
L 97.821913 86.856338 
L 98.066973 87.088273 
L 98.312033 86.369849 
L 98.557092 86.394027 
L 98.802152 85.850861 
L 99.047212 86.063567 
L 99.292271 84.68099 
L 99.537331 84.877119 
L 100.27251 82.10232 
L 100.76263 81.535608 
L 101.007689 80.828593 
L 101.252749 80.583188 
L 101.497809 79.848538 
L 101.987928 79.072879 
L 102.232988 79.109333 
L 102.723107 78.494215 
L 102.968167 79.030767 
L 103.213227 78.408071 
L 103.458286 78.777391 
L 103.703346 79.369191 
L 103.948406 79.271896 
L 104.193465 80.480454 
L 104.438525 80.990825 
L 104.683585 80.762051 
L 104.928644 81.637291 
L 105.173704 81.775152 
L 105.418764 82.475181 
L 105.663823 82.812715 
L 105.908883 82.734453 
L 106.153943 83.595574 
L 106.889122 84.26581 
L 107.134182 83.8517 
L 107.624301 85.220258 
L 107.869361 85.214068 
L 108.11442 84.715178 
L 108.35948 85.279364 
L 108.60454 85.072599 
L 108.849599 84.649771 
L 109.094659 83.940669 
L 109.339719 85.033085 
L 109.584778 84.940657 
L 110.074898 84.294164 
L 110.319958 83.821169 
L 110.810077 84.556413 
L 111.055137 83.407606 
L 111.300196 83.67529 
L 111.545256 82.891086 
L 111.790316 83.89408 
L 112.035375 84.197553 
L 112.280435 84.054028 
L 112.770554 84.029201 
L 113.015614 83.310871 
L 113.260674 83.523593 
L 113.750793 82.601969 
L 113.995853 82.874747 
L 114.240913 81.881465 
L 114.485972 82.173425 
L 115.221151 79.261746 
L 116.20139 71.80854 
L 116.691509 66.734324 
L 119.387166 34.447196 
L 120.122345 29.021929 
L 120.367405 28.406158 
L 120.612465 27.065646 
L 121.347644 27.627712 
L 121.592703 28.861643 
L 121.837763 29.107152 
L 122.327882 32.372565 
L 123.308121 41.843299 
L 124.0433 50.758035 
L 127.474136 94.064101 
L 127.964255 98.389803 
L 128.699434 105.463176 
L 128.944494 106.164649 
L 129.434613 109.672246 
L 129.679673 110.341776 
L 129.924733 111.641177 
L 130.169792 112.047888 
L 130.414852 111.904734 
L 130.659912 112.391026 
L 131.150031 111.160737 
L 131.395091 111.533749 
L 131.640151 110.383233 
L 131.88521 109.954907 
L 132.37533 107.186921 
L 132.620389 106.446387 
L 133.110509 103.439308 
L 133.600628 101.519483 
L 133.845688 99.853008 
L 134.090747 99.481984 
L 134.335807 98.318161 
L 134.580867 98.533999 
L 134.825927 98.163346 
L 135.070986 98.195142 
L 135.316046 96.811573 
L 135.561106 96.703002 
L 135.806165 96.456108 
L 136.051225 97.075539 
L 136.296285 97.072513 
L 136.541344 96.453209 
L 136.786404 97.597785 
L 137.031464 97.775783 
L 137.276523 97.807483 
L 138.256762 100.644479 
L 138.501822 101.62906 
L 138.746882 102.065169 
L 139.237001 104.85134 
L 139.482061 104.930373 
L 139.97218 107.516801 
L 140.21724 108.358416 
L 140.707359 110.950713 
L 140.952419 111.907146 
L 141.197478 114.018003 
L 141.687598 115.896996 
L 141.932658 116.776508 
L 142.177717 118.694839 
L 142.912896 121.410428 
L 143.157956 122.860247 
L 143.403016 123.290976 
L 143.893135 124.322437 
L 144.628314 125.768477 
L 144.873374 125.586803 
L 145.118434 125.984697 
L 145.363493 126.628816 
L 145.608553 126.414799 
L 145.853613 125.939257 
L 146.098672 126.147414 
L 146.588792 124.786581 
L 147.078911 123.449068 
L 147.56903 121.545083 
L 147.81409 121.126023 
L 148.30421 117.394297 
L 148.549269 116.679431 
L 150.264687 108.165298 
L 150.509747 107.679657 
L 150.754806 106.657159 
L 150.999866 103.788859 
L 151.489985 101.781129 
L 151.735045 99.257006 
L 151.980105 98.422821 
L 152.225165 96.696854 
L 152.715284 91.895373 
L 154.185642 80.19182 
L 154.920821 73.516204 
L 155.656 68.143372 
L 156.14612 62.492347 
L 158.106597 42.588838 
L 159.086836 34.87043 
L 160.312134 27.688841 
L 160.557194 26.885253 
L 160.802254 25.562583 
L 161.537433 25.440966 
L 162.027552 26.574183 
L 162.762731 30.955097 
L 163.252851 33.922852 
L 163.74297 40.128098 
L 164.968268 55.405255 
L 165.703448 65.686432 
L 166.683686 78.540133 
L 167.173806 85.179091 
L 167.418865 86.973719 
L 168.399104 97.081452 
L 168.889223 100.202266 
L 169.624403 104.292117 
L 170.114522 105.958776 
L 170.359582 107.020285 
L 170.604641 107.465329 
L 170.849701 109.473828 
L 171.58488 112.101821 
L 171.82994 112.262816 
L 172.320059 114.279168 
L 173.300298 116.286956 
L 173.545358 115.863922 
L 173.790417 116.506656 
L 174.035477 116.796352 
L 174.280537 116.588222 
L 174.525596 116.667395 
L 174.770656 117.128566 
L 175.260775 115.156993 
L 175.505835 115.486913 
L 175.995954 114.08378 
L 176.241014 113.668471 
L 176.486074 112.963848 
L 176.976193 110.823478 
L 177.221253 110.200302 
L 177.956432 106.64988 
L 178.691611 101.317112 
L 178.936671 100.378057 
L 179.67185 95.60287 
L 179.91691 94.566225 
L 180.161969 92.160579 
L 180.407029 91.983171 
L 180.652089 89.550022 
L 180.897148 88.941538 
L 181.142208 87.485598 
L 181.632327 86.15684 
L 182.122447 84.406238 
L 182.367506 83.366409 
L 182.612566 83.230111 
L 183.102685 81.979529 
L 183.347745 81.381048 
L 183.592805 81.939423 
L 184.082924 80.615252 
L 184.327984 81.529688 
L 184.818103 82.512157 
L 185.063163 83.854516 
L 185.308223 84.299406 
L 186.043402 88.878273 
L 187.2687 97.741169 
L 188.003879 102.631289 
L 188.739058 108.302722 
L 189.229178 111.434414 
L 189.474237 112.504581 
L 189.964357 115.75968 
L 190.454476 117.654652 
L 191.189655 121.153579 
L 191.434715 121.313233 
L 191.679775 121.874402 
L 191.924834 123.65354 
L 192.414954 124.492655 
L 192.660013 124.655312 
L 192.905073 125.058954 
L 193.150133 126.34227 
L 193.395192 126.738137 
L 193.640252 125.642227 
L 193.885312 125.655 
L 194.130372 126.20185 
L 194.375431 126.18524 
L 194.620491 125.84521 
L 194.865551 126.021464 
L 195.11061 125.125873 
L 195.35567 125.274115 
L 195.60073 125.229688 
L 195.845789 124.069222 
L 196.335909 123.304315 
L 196.580968 123.265965 
L 196.826028 122.388756 
L 197.071088 122.031803 
L 197.316148 122.403842 
L 197.561207 120.934252 
L 197.806267 121.330022 
L 198.051327 121.428446 
L 198.296386 121.101181 
L 198.541446 120.998763 
L 198.786506 120.466701 
L 199.031565 120.83246 
L 199.276625 121.494799 
L 199.766744 121.991442 
L 200.011804 121.739784 
L 200.256864 121.866654 
L 200.501923 122.229916 
L 200.746983 121.864335 
L 200.992043 123.029375 
L 201.237103 122.477913 
L 201.482162 123.444696 
L 201.727222 123.585396 
L 201.972282 123.47209 
L 202.217341 123.782908 
L 202.462401 123.427817 
L 202.707461 124.461016 
L 202.95252 124.597642 
L 203.19758 125.179694 
L 203.44264 125.255465 
L 203.687699 125.931533 
L 203.932759 125.769268 
L 204.177819 127.084581 
L 204.422879 126.341301 
L 204.667938 127.596599 
L 205.158058 128.856966 
L 205.403117 128.676089 
L 205.648177 129.991683 
L 205.893237 130.687578 
L 206.138296 130.991969 
L 206.383356 130.139044 
L 206.628416 131.936847 
L 207.118535 132.904621 
L 207.363595 132.364102 
L 207.363595 132.364102 
" clip-path="url(#p6d7e70a0b2)" style="fill: none; stroke: #d55e00; stroke-width: 0.85; stroke-linecap: square"/>
   </g>
   <g id="patch_3">
    <path d="M 19.402812 138.222992 
L 19.402812 2.16 
" style="fill: none; stroke: #000000; stroke-width: 0.8; stroke-linejoin: miter; stroke-linecap: square"/>
   </g>
   <g id="patch_4">
    <path d="M 209.324072 138.222992 
L 209.324072 2.16 
" style="fill: none; stroke: #000000; stroke-width: 0.8; stroke-linejoin: miter; stroke-linecap: square"/>
   </g>
   <g id="patch_5">
    <path d="M 19.402812 138.222992 
L 209.324072 138.222992 
" style="fill: none; stroke: #000000; stroke-width: 0.8; stroke-linejoin: miter; stroke-linecap: square"/>
   </g>
   <g id="patch_6">
    <path d="M 19.402812 2.16 
L 209.324072 2.16 
" style="fill: none; stroke: #000000; stroke-width: 0.8; stroke-linejoin: miter; stroke-linecap: square"/>
   </g>
   <g id="legend_1">
    <g id="line2d_11">
     <path d="M 156.75801 5.680125 
L 162.70801 5.680125 
L 168.65801 5.680125 
" style="fill: none; stroke: #0072b2; stroke-width: 0.85; stroke-linecap: square"/>
    </g>
    <g id="text_11">
     <!-- y = 1.120 µm -->
     <g transform="translate(172.22801 7.814075) scale(0.0616 -0.0616)">
      <defs>
       <path id="LiberationSans-79" d="M 597 -1328 
Q 366 -1328 209 -1294 
L 209 -872 
Q 328 -891 472 -891 
Q 997 -891 1303 -119 
L 1356 16 
L 16 3381 
L 616 3381 
L 1328 1513 
Q 1344 1469 1366 1408 
Q 1388 1347 1506 1000 
Q 1625 653 1634 613 
L 1853 1228 
L 2594 3381 
L 3188 3381 
L 1888 0 
Q 1678 -541 1497 -805 
Q 1316 -1069 1095 -1198 
Q 875 -1328 597 -1328 
z
" transform="scale(0.015625)"/>
       <path id="LiberationSans-3d" d="M 313 2675 
L 313 3138 
L 3422 3138 
L 3422 2675 
L 313 2675 
z
M 313 1075 
L 313 1538 
L 3422 1538 
L 3422 1075 
L 313 1075 
z
" transform="scale(0.015625)"/>
       <path id="LiberationSans-2e" d="M 584 0 
L 584 684 
L 1194 684 
L 1194 0 
L 584 0 
z
" transform="scale(0.015625)"/>
       <path id="LiberationSans-b5" d="M 438 -1328 
L 438 3381 
L 1003 3381 
L 1003 1238 
Q 1003 806 1170 589 
Q 1338 372 1709 372 
Q 2109 372 2337 644 
Q 2566 916 2566 1422 
L 2566 3381 
L 3128 3381 
L 3128 831 
Q 3128 594 3184 486 
Q 3241 378 3372 378 
Q 3450 378 3541 403 
L 3541 0 
Q 3338 -63 3188 -63 
Q 2903 -63 2754 84 
Q 2606 231 2591 544 
L 2581 544 
Q 2250 -63 1647 -63 
Q 1438 -63 1267 1 
Q 1097 66 1000 184 
L 1000 -1328 
L 438 -1328 
z
" transform="scale(0.015625)"/>
      </defs>
      <use xlink:href="#LiberationSans-79"/>
      <use xlink:href="#LiberationSans-20" x="50"/>
      <use xlink:href="#LiberationSans-3d" x="77.783203"/>
      <use xlink:href="#LiberationSans-20" x="136.181641"/>
      <use xlink:href="#LiberationSans-31" x="163.964844"/>
      <use xlink:href="#LiberationSans-2e" x="219.580078"/>
      <use xlink:href="#LiberationSans-31" x="247.363281"/>
      <use xlink:href="#LiberationSans-32" x="302.978516"/>
      <use xlink:href="#LiberationSans-30" x="358.59375"/>
      <use xlink:href="#LiberationSans-20" x="414.208984"/>
      <use xlink:href="#LiberationSans-b5" x="441.992188"/>
      <use xlink:href="#LiberationSans-6d" x="499.609375"/>
     </g>
    </g>
    <g id="line2d_12">
     <path d="M 156.75801 13.2074 
L 162.70801 13.2074 
L 168.65801 13.2074 
" style="fill: none; stroke: #d55e00; stroke-width: 0.85; stroke-linecap: square"/>
    </g>
    <g id="text_12">
     <!-- y = 2.040 µm -->
     <g transform="translate(172.22801 15.34135) scale(0.0616 -0.0616)">
      <use xlink:href="#LiberationSans-79"/>
      <use xlink:href="#LiberationSans-20" x="50"/>
      <use xlink:href="#LiberationSans-3d" x="77.783203"/>
      <use xlink:href="#LiberationSans-20" x="136.181641"/>
      <use xlink:href="#LiberationSans-32" x="163.964844"/>
      <use xlink:href="#LiberationSans-2e" x="219.580078"/>
      <use xlink:href="#LiberationSans-30" x="247.363281"/>
      <use xlink:href="#LiberationSans-34" x="302.978516"/>
      <use xlink:href="#LiberationSans-30" x="358.59375"/>
      <use xlink:href="#LiberationSans-20" x="414.208984"/>
      <use xlink:href="#LiberationSans-b5" x="441.992188"/>
      <use xlink:href="#LiberationSans-6d" x="499.609375"/>
     </g>
    </g>
   </g>
  </g>
 </g>
 <defs>
  <clipPath id="p6d7e70a0b2">
   <rect x="19.402812" y="2.16" width="189.92126" height="136.062992"/>
  </clipPath>
 </defs>
</svg>
