<?xml version="1.0" encoding="utf-8" standalone="no"?>
<!DOCTYPE svg PUBLIC "-//W3C//DTD SVG 1.1//EN"
  "http://www.w3.org/Graphics/SVG/1.1/DTD/svg11.dtd">
<svg xmlns:xlink="http://www.w3.org/1999/xlink" width="218.263916pt" height="156.365805pt" viewBox="0 0 218.263916 156.365805" xmlns="http://www.w3.org/2000/svg" version="1.1">
 <metadata>
  <rdf:RDF xmlns:dc="http://purl.org/dc/elements/1.1/" xmlns:cc="http://creativecommons.org/ns#" xmlns:rdf="http://www.w3.org/1999/02/22-rdf-syntax-ns#">
   <cc:Work>
    <dc:type rdf:resource="http://purl.org/dc/dcmitype/StillImage"/>
    <dc:date>2026-10-04T07:13:55.057000</dc:date>
    <dc:format>image/svg+xml</dc:format>
    <dc:creator>
     <cc:Agent>
      <dc:title>Matplotlib v3.8.4, https://matplotlib.org/</dc:title>
     </cc:Agent>
    </dc:creator>
   </cc:Work>
  </rdf:RDF>
 </metadata>
 <defs>
  <style type="text/css">*{stroke-linejoin: round; stroke-linecap: butt}</style>
 </defs>
 <g id="figure_1">
  <g id="patch_1">
   <path d="M 0 156.365805 
L 218.263916 156.365805 
L 218.263916 0 
L 0 0 
z
" style="fill: #ffffff"/>
  </g>
  <g id="axes_1">
   <g id="patch_2">
    <path d="M 22.29 138.222992 
L 212.21126 138.222992 
L 212.21126 2.16 
L 22.29 2.16 
z
" style="fill: #ffffff"/>
   </g>
   <g id="matplotlib.axis_1">
    <g id="xtick_1">
     <g id="line2d_1">
      <defs>
       <path id="m472917a8da" d="M 0 0 
L 0 -2.5 
" style="stroke: #000000; stroke-width: 0.8"/>
      </defs>
      <g>
       <use xlink:href="#m472917a8da" x="22.29" y="138.222992" style="stroke: #000000; stroke-width: 0.8"/>
      </g>
     </g>
     <g id="text_1">
      <!-- 0 -->
      <g transform="translate(20.343672 145.295805) scale(0.07 -0.07)">
       <defs>
        <path id="LiberationSans-30" d="M 3309 2203 
Q 3309 1100 2920 518 
Q 2531 -63 1772 -63 
Q 1013 -63 631 515 
Q 250 1094 250 2203 
Q 250 3338 620 3903 
Q 991 4469 1791 4469 
Q 2569 4469 2939 3897 
Q 3309 3325 3309 2203 
z
M 2738 2203 
Q 2738 3156 2517 3584 
Q 2297 4013 1791 4013 
Q 1272 4013 1045 3591 
Q 819 3169 819 2203 
Q 819 1266 1048 831 
Q 1278 397 1778 397 
Q 2275 397 2506 840 
Q 2738 1284 2738 2203 
z
" transform="scale(0.015625)"/>
       </defs>
       <use xlink:href="#LiberationSans-30"/>
      </g>
     </g>
    </g>
    <g id="xtick_2">
     <g id="line2d_2">
      <g>
       <use xlink:href="#m472917a8da" x="69.770315" y="138.222992" style="stroke: #000000; stroke-width: 0.8"/>
      </g>
     </g>
     <g id="text_2">
      <!-- 3 -->
      <g transform="translate(67.823987 145.295805) scale(0.07 -0.07)">
       <defs>
        <path id="LiberationSans-33" d="M 3278 1216 
Q 3278 606 2890 271 
Q 2503 -63 1784 -63 
Q 1116 -63 717 239 
Q 319 541 244 1131 
L 825 1184 
Q 938 403 1784 403 
Q 2209 403 2451 612 
Q 2694 822 2694 1234 
Q 2694 1594 2417 1795 
Q 2141 1997 1619 1997 
L 1300 1997 
L 1300 2484 
L 1606 2484 
Q 2069 2484 2323 2686 
Q 2578 2888 2578 3244 
Q 2578 3597 2370 3801 
Q 2163 4006 1753 4006 
Q 1381 4006 1151 3815 
Q 922 3625 884 3278 
L 319 3322 
Q 381 3863 767 4166 
Q 1153 4469 1759 4469 
Q 2422 4469 2789 4161 
Q 3156 3853 3156 3303 
Q 3156 2881 2920 2617 
Q 2684 2353 2234 2259 
L 2234 2247 
Q 2728 2194 3003 1916 
Q 3278 1638 3278 1216 
z
" transform="scale(0.015625)"/>
       </defs>
       <use xlink:href="#LiberationSans-33"/>
      </g>
     </g>
    </g>
    <g id="xtick_3">
     <g id="line2d_3">
      <g>
       <use xlink:href="#m472917a8da" x="117.25063" y="138.222992" style="stroke: #000000; stroke-width: 0.8"/>
      </g>
     </g>
     <g id="text_3">
      <!-- 6 -->
      <g transform="translate(115.304302 145.295805) scale(0.07 -0.07)">
       <defs>
        <path id="LiberationSans-36" d="M 3278 1441 
Q 3278 744 2900 340 
Q 2522 -63 1856 -63 
Q 1113 -63 719 490 
Q 325 1044 325 2100 
Q 325 3244 734 3856 
Q 1144 4469 1900 4469 
Q 2897 4469 3156 3572 
L 2619 3475 
Q 2453 4013 1894 4013 
Q 1413 4013 1148 3564 
Q 884 3116 884 2266 
Q 1038 2550 1316 2698 
Q 1594 2847 1953 2847 
Q 2563 2847 2920 2465 
Q 3278 2084 3278 1441 
z
M 2706 1416 
Q 2706 1894 2472 2153 
Q 2238 2413 1819 2413 
Q 1425 2413 1183 2183 
Q 941 1953 941 1550 
Q 941 1041 1192 716 
Q 1444 391 1838 391 
Q 2244 391 2475 664 
Q 2706 938 2706 1416 
z
" transform="scale(0.015625)"/>
       </defs>
       <use xlink:href="#LiberationSans-36"/>
      </g>
     </g>
    </g>
    <g id="xtick_4">
     <g id="line2d_4">
      <g>
       <use xlink:href="#m472917a8da" x="164.730945" y="138.222992" style="stroke: #000000; stroke-width: 0.8"/>
      </g>
     </g>
     <g id="text_4">
      <!-- 9 -->
      <g transform="translate(162.784617 145.295805) scale(0.07 -0.07)">
       <defs>
        <path id="LiberationSans-39" d="M 3256 2291 
Q 3256 1156 2842 546 
Q 2428 -63 1663 -63 
Q 1147 -63 836 154 
Q 525 372 391 856 
L 928 941 
Q 1097 391 1672 391 
Q 2156 391 2422 841 
Q 2688 1291 2700 2125 
Q 2575 1844 2272 1673 
Q 1969 1503 1606 1503 
Q 1013 1503 656 1909 
Q 300 2316 300 2988 
Q 300 3678 687 4073 
Q 1075 4469 1766 4469 
Q 2500 4469 2878 3925 
Q 3256 3381 3256 2291 
z
M 2644 2834 
Q 2644 3366 2400 3689 
Q 2156 4013 1747 4013 
Q 1341 4013 1106 3736 
Q 872 3459 872 2988 
Q 872 2506 1106 2226 
Q 1341 1947 1741 1947 
Q 1984 1947 2193 2058 
Q 2403 2169 2523 2372 
Q 2644 2575 2644 2834 
z
" transform="scale(0.015625)"/>
       </defs>
       <use xlink:href="#LiberationSans-39"/>
      </g>
     </g>
    </g>
    <g id="xtick_5">
     <g id="line2d_5">
      <g>
       <use xlink:href="#m472917a8da" x="212.21126" y="138.222992" style="stroke: #000000; stroke-width: 0.8"/>
      </g>
     </g>
     <g id="text_5">
      <!-- 12 -->
      <g transform="translate(208.318604 145.295805) scale(0.07 -0.07)">
       <defs>
        <path id="LiberationSans-31" d="M 488 0 
L 488 478 
L 1609 478 
L 1609 3866 
L 616 3156 
L 616 3688 
L 1656 4403 
L 2175 4403 
L 2175 478 
L 3247 478 
L 3247 0 
L 488 0 
z
" transform="scale(0.015625)"/>
        <path id="LiberationSans-32" d="M 322 0 
L 322 397 
Q 481 763 711 1042 
Q 941 1322 1194 1548 
Q 1447 1775 1695 1969 
Q 1944 2163 2144 2356 
Q 2344 2550 2467 2762 
Q 2591 2975 2591 3244 
Q 2591 3606 2378 3806 
Q 2166 4006 1788 4006 
Q 1428 4006 1195 3811 
Q 963 3616 922 3263 
L 347 3316 
Q 409 3844 795 4156 
Q 1181 4469 1788 4469 
Q 2453 4469 2811 4155 
Q 3169 3841 3169 3263 
Q 3169 3006 3051 2753 
Q 2934 2500 2703 2247 
Q 2472 1994 1819 1463 
Q 1459 1169 1246 933 
Q 1034 697 941 478 
L 3238 478 
L 3238 0 
L 322 0 
z
" transform="scale(0.015625)"/>
       </defs>
       <use xlink:href="#LiberationSans-31"/>
       <use xlink:href="#LiberationSans-32" x="55.615234"/>
      </g>
     </g>
    </g>
    <g id="text_6">
     <!-- Time (s) -->
     <g transform="translate(102.737505 152.545805) scale(0.08 -0.08)">
      <defs>
       <path id="LiberationSans-54" d="M 2250 3916 
L 2250 0 
L 1656 0 
L 1656 3916 
L 144 3916 
L 144 4403 
L 3763 4403 
L 3763 3916 
L 2250 3916 
z
" transform="scale(0.015625)"/>
       <path id="LiberationSans-69" d="M 428 4100 
L 428 4638 
L 991 4638 
L 991 4100 
L 428 4100 
z
M 428 0 
L 428 3381 
L 991 3381 
L 991 0 
L 428 0 
z
" transform="scale(0.015625)"/>
       <path id="LiberationSans-6d" d="M 2400 0 
L 2400 2144 
Q 2400 2634 2265 2821 
Q 2131 3009 1781 3009 
Q 1422 3009 1212 2734 
Q 1003 2459 1003 1959 
L 1003 0 
L 444 0 
L 444 2659 
Q 444 3250 425 3381 
L 956 3381 
Q 959 3366 962 3297 
Q 966 3228 970 3139 
Q 975 3050 981 2803 
L 991 2803 
Q 1172 3163 1406 3303 
Q 1641 3444 1978 3444 
Q 2363 3444 2586 3291 
Q 2809 3138 2897 2803 
L 2906 2803 
Q 3081 3144 3329 3294 
Q 3578 3444 3931 3444 
Q 4444 3444 4676 3166 
Q 4909 2888 4909 2253 
L 4909 0 
L 4353 0 
L 4353 2144 
Q 4353 2634 4218 2821 
Q 4084 3009 3734 3009 
Q 3366 3009 3161 2736 
Q 2956 2463 2956 1959 
L 2956 0 
L 2400 0 
z
" transform="scale(0.015625)"/>
       <path id="LiberationSans-65" d="M 863 1572 
Q 863 991 1103 675 
Q 1344 359 1806 359 
Q 2172 359 2392 506 
Q 2613 653 2691 878 
L 3184 738 
Q 2881 -63 1806 -63 
Q 1056 -63 664 384 
Q 272 831 272 1713 
Q 272 2550 664 2997 
Q 1056 3444 1784 3444 
Q 3275 3444 3275 1647 
L 3275 1572 
L 863 1572 
z
M 2694 2003 
Q 2647 2538 2422 2783 
Q 2197 3028 1775 3028 
Q 1366 3028 1127 2754 
Q 888 2481 869 2003 
L 2694 2003 
z
" transform="scale(0.015625)"/>
       <path id="LiberationSans-20" transform="scale(0.015625)"/>
       <path id="LiberationSans-28" d="M 397 1663 
Q 397 2566 680 3284 
Q 963 4003 1550 4638 
L 2094 4638 
Q 1509 3988 1236 3256 
Q 963 2525 963 1656 
Q 963 791 1233 62 
Q 1503 -666 2094 -1325 
L 1550 -1325 
Q 959 -688 678 32 
Q 397 753 397 1650 
L 397 1663 
z
" transform="scale(0.015625)"/>
       <path id="LiberationSans-73" d="M 2969 934 
Q 2969 456 2608 196 
Q 2247 -63 1597 -63 
Q 966 -63 623 145 
Q 281 353 178 794 
L 675 891 
Q 747 619 972 492 
Q 1197 366 1597 366 
Q 2025 366 2223 497 
Q 2422 628 2422 891 
Q 2422 1091 2284 1216 
Q 2147 1341 1841 1422 
L 1438 1528 
Q 953 1653 748 1773 
Q 544 1894 428 2066 
Q 313 2238 313 2488 
Q 313 2950 642 3192 
Q 972 3434 1603 3434 
Q 2163 3434 2492 3237 
Q 2822 3041 2909 2606 
L 2403 2544 
Q 2356 2769 2151 2889 
Q 1947 3009 1603 3009 
Q 1222 3009 1040 2893 
Q 859 2778 859 2544 
Q 859 2400 934 2306 
Q 1009 2213 1156 2147 
Q 1303 2081 1775 1966 
Q 2222 1853 2419 1758 
Q 2616 1663 2730 1547 
Q 2844 1431 2906 1279 
Q 2969 1128 2969 934 
z
" transform="scale(0.015625)"/>
       <path id="LiberationSans-29" d="M 1734 1650 
Q 1734 747 1451 28 
Q 1169 -691 581 -1325 
L 38 -1325 
Q 625 -669 897 57 
Q 1169 784 1169 1656 
Q 1169 2528 895 3256 
Q 622 3984 38 4638 
L 581 4638 
Q 1172 4000 1453 3279 
Q 1734 2559 1734 1663 
L 1734 1650 
z
" transform="scale(0.015625)"/>
      </defs>
      <use xlink:href="#LiberationSans-54"/>
      <use xlink:href="#LiberationSans-69" x="57.333984"/>
      <use xlink:href="#LiberationSans-6d" x="79.550781"/>
      <use xlink:href="#LiberationSans-65" x="162.851562"/>
      <use xlink:href="#LiberationSans-20" x="218.466797"/>
      <use xlink:href="#LiberationSans-28" x="246.25"/>
      <use xlink:href="#LiberationSans-73" x="279.550781"/>
      <use xlink:href="#LiberationSans-29" x="329.550781"/>
     </g>
    </g>
   </g>
   <g id="matplotlib.axis_2">
    <g id="ytick_1">
     <g id="line2d_6">
      <defs>
       <path id="m3aa3cc3486" d="M 0 0 
L 2.5 0 
" style="stroke: #000000; stroke-width: 0.8"/>
      </defs>
      <g>
       <use xlink:href="#m3aa3cc3486" x="22.29" y="138.222992" style="stroke: #000000; stroke-width: 0.8"/>
      </g>
     </g>
     <g id="text_7">
      <!-- 0 -->
      <g transform="translate(16.397344 140.759398) scale(0.07 -0.07)">
       <use xlink:href="#LiberationSans-30"/>
      </g>
     </g>
    </g>
    <g id="ytick_2">
     <g id="line2d_7">
      <g>
       <use xlink:href="#m3aa3cc3486" x="22.29" y="107.299585" style="stroke: #000000; stroke-width: 0.8"/>
      </g>
     </g>
     <g id="text_8">
      <!-- 0.5 -->
      <g transform="translate(10.56 109.835991) scale(0.07 -0.07)">
       <defs>
        <path id="LiberationSans-2e" d="M 584 0 
L 584 684 
L 1194 684 
L 1194 0 
L 584 0 
z
" transform="scale(0.015625)"/>
        <path id="LiberationSans-35" d="M 3291 1434 
Q 3291 738 2877 337 
Q 2463 -63 1728 -63 
Q 1113 -63 734 206 
Q 356 475 256 984 
L 825 1050 
Q 1003 397 1741 397 
Q 2194 397 2450 670 
Q 2706 944 2706 1422 
Q 2706 1838 2448 2094 
Q 2191 2350 1753 2350 
Q 1525 2350 1328 2278 
Q 1131 2206 934 2034 
L 384 2034 
L 531 4403 
L 3034 4403 
L 3034 3925 
L 1044 3925 
L 959 2528 
Q 1325 2809 1869 2809 
Q 2519 2809 2905 2428 
Q 3291 2047 3291 1434 
z
" transform="scale(0.015625)"/>
       </defs>
       <use xlink:href="#LiberationSans-30"/>
       <use xlink:href="#LiberationSans-2e" x="55.615234"/>
       <use xlink:href="#LiberationSans-35" x="83.398438"/>
      </g>
     </g>
    </g>
    <g id="ytick_3">
     <g id="line2d_8">
      <g>
       <use xlink:href="#m3aa3cc3486" x="22.29" y="76.376178" style="stroke: #000000; stroke-width: 0.8"/>
      </g>
     </g>
     <g id="text_9">
      <!-- 1 -->
      <g transform="translate(16.397344 78.912584) scale(0.07 -0.07)">
       <use xlink:href="#LiberationSans-31"/>
      </g>
     </g>
    </g>
    <g id="ytick_4">
     <g id="line2d_9">
      <g>
       <use xlink:href="#m3aa3cc3486" x="22.29" y="45.45277" style="stroke: #000000; stroke-width: 0.8"/>
      </g>
     </g>
     <g id="text_10">
      <!-- 1.5 -->
      <g transform="translate(10.56 47.989176) scale(0.07 -0.07)">
       <use xlink:href="#LiberationSans-31"/>
       <use xlink:href="#LiberationSans-2e" x="55.615234"/>
       <use xlink:href="#LiberationSans-35" x="83.398438"/>
      </g>
     </g>
    </g>
    <g id="ytick_5">
     <g id="line2d_10">
      <g>
       <use xlink:href="#m3aa3cc3486" x="22.29" y="14.529363" style="stroke: #000000; stroke-width: 0.8"/>
      </g>
     </g>
     <g id="text_11">
      <!-- 2 -->
      <g transform="translate(16.397344 17.065769) scale(0.07 -0.07)">
       <use xlink:href="#LiberationSans-32"/>
      </g>
     </g>
    </g>
    <g id="text_12">
     <!-- Current density (mA/cm$^2$) -->
     <g transform="translate(8.88 115.071496) rotate(-90) scale(0.08 -0.08)">
      <defs>
       <path id="LiberationSans-43" d="M 2475 3981 
Q 1744 3981 1337 3511 
Q 931 3041 931 2222 
Q 931 1413 1354 920 
Q 1778 428 2500 428 
Q 3425 428 3891 1344 
L 4378 1100 
Q 4106 531 3614 234 
Q 3122 -63 2472 -63 
Q 1806 -63 1320 214 
Q 834 491 579 1005 
Q 325 1519 325 2222 
Q 325 3275 894 3872 
Q 1463 4469 2469 4469 
Q 3172 4469 3644 4194 
Q 4116 3919 4338 3378 
L 3772 3191 
Q 3619 3575 3280 3778 
Q 2941 3981 2475 3981 
z
" transform="scale(0.015625)"/>
       <path id="LiberationSans-75" d="M 981 3381 
L 981 1238 
Q 981 903 1047 718 
Q 1113 534 1256 453 
Q 1400 372 1678 372 
Q 2084 372 2318 650 
Q 2553 928 2553 1422 
L 2553 3381 
L 3116 3381 
L 3116 722 
Q 3116 131 3134 0 
L 2603 0 
Q 2600 16 2597 84 
Q 2594 153 2589 242 
Q 2584 331 2578 578 
L 2569 578 
Q 2375 228 2120 82 
Q 1866 -63 1488 -63 
Q 931 -63 673 214 
Q 416 491 416 1128 
L 416 3381 
L 981 3381 
z
" transform="scale(0.015625)"/>
       <path id="LiberationSans-72" d="M 444 0 
L 444 2594 
Q 444 2950 425 3381 
L 956 3381 
Q 981 2806 981 2691 
L 994 2691 
Q 1128 3125 1303 3284 
Q 1478 3444 1797 3444 
Q 1909 3444 2025 3413 
L 2025 2897 
Q 1913 2928 1725 2928 
Q 1375 2928 1190 2626 
Q 1006 2325 1006 1763 
L 1006 0 
L 444 0 
z
" transform="scale(0.015625)"/>
       <path id="LiberationSans-6e" d="M 2578 0 
L 2578 2144 
Q 2578 2478 2512 2662 
Q 2447 2847 2303 2928 
Q 2159 3009 1881 3009 
Q 1475 3009 1240 2731 
Q 1006 2453 1006 1959 
L 1006 0 
L 444 0 
L 444 2659 
Q 444 3250 425 3381 
L 956 3381 
Q 959 3366 962 3297 
Q 966 3228 970 3139 
Q 975 3050 981 2803 
L 991 2803 
Q 1184 3153 1439 3298 
Q 1694 3444 2072 3444 
Q 2628 3444 2886 3167 
Q 3144 2891 3144 2253 
L 3144 0 
L 2578 0 
z
" transform="scale(0.015625)"/>
       <path id="LiberationSans-74" d="M 1731 25 
Q 1453 -50 1163 -50 
Q 488 -50 488 716 
L 488 2972 
L 97 2972 
L 97 3381 
L 509 3381 
L 675 4138 
L 1050 4138 
L 1050 3381 
L 1675 3381 
L 1675 2972 
L 1050 2972 
L 1050 838 
Q 1050 594 1129 495 
Q 1209 397 1406 397 
Q 1519 397 1731 441 
L 1731 25 
z
" transform="scale(0.015625)"/>
       <path id="LiberationSans-64" d="M 2566 544 
Q 2409 219 2151 78 
Q 1894 -63 1513 -63 
Q 872 -63 570 368 
Q 269 800 269 1675 
Q 269 3444 1513 3444 
Q 1897 3444 2153 3303 
Q 2409 3163 2566 2856 
L 2572 2856 
L 2566 3234 
L 2566 4638 
L 3128 4638 
L 3128 697 
Q 3128 169 3147 0 
L 2609 0 
Q 2600 50 2589 231 
Q 2578 413 2578 544 
L 2566 544 
z
M 859 1694 
Q 859 984 1046 678 
Q 1234 372 1656 372 
Q 2134 372 2350 703 
Q 2566 1034 2566 1731 
Q 2566 2403 2350 2715 
Q 2134 3028 1663 3028 
Q 1238 3028 1048 2714 
Q 859 2400 859 1694 
z
" transform="scale(0.015625)"/>
       <path id="LiberationSans-79" d="M 597 -1328 
Q 366 -1328 209 -1294 
L 209 -872 
Q 328 -891 472 -891 
Q 997 -891 1303 -119 
L 1356 16 
L 16 3381 
L 616 3381 
L 1328 1513 
Q 1344 1469 1366 1408 
Q 1388 1347 1506 1000 
Q 1625 653 1634 613 
L 1853 1228 
L 2594 3381 
L 3188 3381 
L 1888 0 
Q 1678 -541 1497 -805 
Q 1316 -1069 1095 -1198 
Q 875 -1328 597 -1328 
z
" transform="scale(0.015625)"/>
       <path id="LiberationSans-41" d="M 3647 0 
L 3144 1288 
L 1138 1288 
L 631 0 
L 13 0 
L 1809 4403 
L 2488 4403 
L 4256 0 
L 3647 0 
z
M 2141 3953 
L 2113 3866 
Q 2034 3606 1881 3200 
L 1319 1753 
L 2966 1753 
L 2400 3206 
Q 2313 3422 2225 3694 
L 2141 3953 
z
" transform="scale(0.015625)"/>
       <path id="LiberationSans-2f" d="M 0 -63 
L 1284 4638 
L 1778 4638 
L 506 -63 
L 0 -63 
z
" transform="scale(0.015625)"/>
       <path id="LiberationSans-63" d="M 859 1706 
Q 859 1031 1071 706 
Q 1284 381 1713 381 
Q 2013 381 2214 543 
Q 2416 706 2463 1044 
L 3031 1006 
Q 2966 519 2616 228 
Q 2266 -63 1728 -63 
Q 1019 -63 645 385 
Q 272 834 272 1694 
Q 272 2547 647 2995 
Q 1022 3444 1722 3444 
Q 2241 3444 2583 3175 
Q 2925 2906 3013 2434 
L 2434 2391 
Q 2391 2672 2212 2837 
Q 2034 3003 1706 3003 
Q 1259 3003 1059 2706 
Q 859 2409 859 1706 
z
" transform="scale(0.015625)"/>
       <path id="STIXGeneral-Regular-1d7e4" d="M 3002 454 
L 2816 0 
L 224 0 
L 224 134 
L 1344 1504 
L 1344 1498 
L 1702 1933 
Q 1952 2234 2054 2365 
Q 2157 2496 2253 2685 
Q 2349 2874 2349 3040 
Q 2349 3437 2134 3654 
Q 1920 3872 1549 3872 
Q 1254 3872 1008 3629 
Q 762 3386 698 2938 
L 237 3046 
Q 339 3616 716 3971 
Q 1094 4326 1594 4326 
Q 2150 4326 2502 3980 
Q 2854 3635 2854 3142 
Q 2854 2784 2720 2525 
Q 2586 2266 2157 1728 
L 1133 454 
L 3002 454 
z
" transform="scale(0.015625)"/>
      </defs>
      <use xlink:href="#LiberationSans-43" transform="translate(0 0.446875)"/>
      <use xlink:href="#LiberationSans-75" transform="translate(72.216797 0.446875)"/>
      <use xlink:href="#LiberationSans-72" transform="translate(127.832031 0.446875)"/>
      <use xlink:href="#LiberationSans-72" transform="translate(161.132812 0.446875)"/>
      <use xlink:href="#LiberationSans-65" transform="translate(194.433594 0.446875)"/>
      <use xlink:href="#LiberationSans-6e" transform="translate(250.048828 0.446875)"/>
      <use xlink:href="#LiberationSans-74" transform="translate(305.664062 0.446875)"/>
      <use xlink:href="#LiberationSans-20" transform="translate(333.447266 0.446875)"/>
      <use xlink:href="#LiberationSans-64" transform="translate(361.230469 0.446875)"/>
      <use xlink:href="#LiberationSans-65" transform="translate(416.845703 0.446875)"/>
      <use xlink:href="#LiberationSans-6e" transform="translate(472.460938 0.446875)"/>
      <use xlink:href="#LiberationSans-73" transform="translate(528.076172 0.446875)"/>
      <use xlink:href="#LiberationSans-69" transform="translate(578.076172 0.446875)"/>
      <use xlink:href="#LiberationSans-74" transform="translate(600.292969 0.446875)"/>
      <use xlink:href="#LiberationSans-79" transform="translate(628.076172 0.446875)"/>
      <use xlink:href="#LiberationSans-20" transform="translate(678.076172 0.446875)"/>
      <use xlink:href="#LiberationSans-28" transform="translate(705.859375 0.446875)"/>
      <use xlink:href="#LiberationSans-6d" transform="translate(739.160156 0.446875)"/>
      <use xlink:href="#LiberationSans-41" transform="translate(822.460938 0.446875)"/>
      <use xlink:href="#LiberationSans-2f" transform="translate(889.160156 0.446875)"/>
      <use xlink:href="#LiberationSans-63" transform="translate(916.943359 0.446875)"/>
      <use xlink:href="#LiberationSans-6d" transform="translate(966.943359 0.446875)"/>
      <use xlink:href="#STIXGeneral-Regular-1d7e4" transform="translate(1051.036836 36.684375) scale(0.7)"/>
      <use xlink:href="#LiberationSans-29" transform="translate(1088.301669 0.446875)"/>
     </g>
    </g>
   </g>
   <g id="line2d_11">
    <path d="M 22.606535 104.355807 
L 22.951899 114.496971 
L 23.297263 118.957179 
L 23.987991 123.436126 
L 24.678718 125.928542 
L 25.369446 127.571673 
L 26.405537 129.167944 
L 27.096265 129.897304 
L 28.47772 131.045961 
L 29.168448 131.361773 
L 30.204539 131.908545 
L 31.24063 132.252213 
L 33.312813 132.917923 
L 35.384996 133.341376 
L 35.73036 133.471639 
L 36.766451 133.540487 
L 37.111815 133.648533 
L 37.802542 133.705807 
L 38.49327 133.813701 
L 43.328363 134.341997 
L 44.364455 134.393996 
L 44.709818 134.519737 
L 46.436637 134.573746 
L 47.472729 134.759222 
L 47.818093 134.656005 
L 48.854184 134.821983 
L 49.199548 134.704877 
L 49.544912 134.812977 
L 50.235639 134.861841 
L 50.581003 134.943046 
L 50.926367 134.896394 
L 51.962458 135.01279 
L 53.689277 134.963119 
L 54.034641 135.095146 
L 58.52437 135.258334 
L 58.869734 135.359939 
L 59.215098 135.282701 
L 59.560462 135.354835 
L 60.251189 135.350738 
L 62.323372 135.403229 
L 63.359463 135.483957 
L 64.050191 135.464642 
L 64.395555 135.550104 
L 64.740919 135.442444 
L 65.086282 135.515575 
L 65.431646 135.474386 
L 65.77701 135.572057 
L 66.122374 135.500242 
L 67.503829 135.604795 
L 69.230648 135.690037 
L 69.576012 135.617436 
L 70.957467 135.721036 
L 71.648194 135.727946 
L 74.065741 135.789196 
L 74.411105 135.708172 
L 75.101833 135.794658 
L 78.555471 135.863564 
L 79.246198 135.849685 
L 80.627653 135.902137 
L 81.318381 135.939307 
L 82.699836 135.987468 
L 83.390564 135.969019 
L 89.952476 136.03266 
L 92.024659 136.116783 
L 94.096841 136.13607 
L 94.442205 136.088579 
L 95.478296 136.194051 
L 95.82366 136.099255 
L 96.514388 136.214345 
L 97.550479 136.172132 
L 97.895843 136.2105 
L 98.241207 136.099459 
L 99.622662 136.247216 
L 100.658754 136.168882 
L 101.349481 136.222892 
L 108.256757 136.360616 
L 108.602121 136.407969 
L 109.292848 136.284543 
L 110.32894 136.315183 
L 112.055759 136.371399 
L 114.818669 136.42671 
L 115.509397 136.340158 
L 116.200124 136.371822 
L 119.308398 136.409617 
L 119.999126 136.433802 
L 137.267316 136.558132 
L 137.61268 136.529246 
L 138.303407 136.625443 
L 138.648771 136.547346 
L 139.339499 136.571396 
L 140.030226 136.628171 
L 140.37559 136.658525 
L 140.720954 136.570832 
L 141.411682 136.58016 
L 143.829228 136.654238 
L 144.519956 136.617711 
L 145.210683 136.630767 
L 145.901411 136.59606 
L 146.246775 136.693622 
L 147.282866 136.620838 
L 147.973594 136.649004 
L 149.009685 136.661081 
L 169.386149 136.792744 
L 170.076877 136.800129 
L 170.767604 136.756634 
L 171.458332 136.820405 
L 172.839787 136.752877 
L 173.530515 136.760613 
L 177.329516 136.803555 
L 178.020244 136.743612 
L 178.365608 136.824457 
L 179.056335 136.815239 
L 181.819246 136.817161 
L 182.16461 136.746146 
L 182.855336 136.811741 
L 183.546064 136.804731 
L 183.891428 136.892918 
L 184.236792 136.787376 
L 184.582156 136.874215 
L 184.92752 136.796218 
L 185.963612 136.892087 
L 187.345067 136.822443 
L 187.690431 136.872246 
L 188.035793 136.805071 
L 188.381157 136.898388 
L 189.071885 136.836316 
L 191.489432 136.894757 
L 194.597706 136.892129 
L 194.94307 136.827255 
L 195.288434 136.917214 
L 196.324525 136.909457 
L 196.669889 136.950627 
L 197.015253 136.869021 
L 198.396709 136.929909 
L 199.087435 136.881493 
L 200.123527 136.931433 
L 201.504982 136.901573 
L 203.231802 136.942858 
L 212.21126 136.993263 
L 212.21126 136.993263 
" clip-path="url(#pe7199f9437)" style="fill: none; stroke: #0072b2; stroke-width: 0.85; stroke-linecap: square"/>
   </g>
   <g id="line2d_12">
    <path d="M 22.606535 72.855423 
L 22.951899 92.770226 
L 23.297263 101.209933 
L 23.642627 106.414379 
L 24.333354 112.49829 
L 25.024082 116.111178 
L 25.71481 118.582615 
L 26.405537 120.477628 
L 27.096265 121.786349 
L 28.132356 123.476787 
L 30.204539 125.572358 
L 31.585994 126.606347 
L 31.931358 126.714915 
L 32.622086 127.203577 
L 35.039632 128.26835 
L 35.73036 128.578646 
L 36.075724 128.566309 
L 36.766451 128.935268 
L 37.802542 129.245962 
L 42.637636 130.438903 
L 43.328363 130.539054 
L 45.74591 130.908517 
L 46.091274 131.06439 
L 46.436637 130.978587 
L 47.127365 131.193563 
L 47.818093 131.179626 
L 48.854184 131.337448 
L 50.235639 131.492526 
L 52.653186 131.806698 
L 54.034641 131.900667 
L 54.725369 132.015536 
L 56.452188 132.173824 
L 57.488279 132.263407 
L 59.215098 132.448106 
L 60.251189 132.489312 
L 60.941917 132.532915 
L 61.287281 132.471313 
L 61.632644 132.590598 
L 63.704827 132.69202 
L 66.467738 132.95376 
L 66.813101 132.86423 
L 67.503829 132.981735 
L 68.885284 133.02958 
L 70.612103 133.14299 
L 72.338922 133.168825 
L 72.684286 133.242717 
L 73.02965 133.196113 
L 73.375014 133.302635 
L 74.065741 133.339078 
L 75.101833 133.394067 
L 76.137924 133.324958 
L 78.900834 133.54391 
L 83.0452 133.685155 
L 84.772019 133.764123 
L 85.117383 133.714464 
L 85.462746 133.79828 
L 86.153474 133.821465 
L 86.844202 133.840687 
L 87.534929 133.799621 
L 88.571021 133.877832 
L 88.916384 133.825549 
L 89.607112 133.902506 
L 91.679295 134.003254 
L 93.06075 134.013756 
L 94.442205 134.071463 
L 96.859752 134.128328 
L 126.906402 134.74734 
L 129.323949 134.719936 
L 129.669312 134.816111 
L 130.014676 134.740341 
L 131.050768 134.787269 
L 138.303407 134.908732 
L 138.648771 134.999047 
L 139.339499 134.915008 
L 140.720954 134.977623 
L 141.411682 134.926097 
L 142.102409 134.981767 
L 142.793137 134.925561 
L 143.829228 135.062816 
L 144.519956 135.026262 
L 150.39114 135.094982 
L 151.081868 135.048066 
L 151.772595 135.092897 
L 152.463323 135.09649 
L 153.154051 135.147256 
L 153.499414 135.100911 
L 154.190142 135.166046 
L 161.097418 135.232079 
L 161.442782 135.308009 
L 162.133509 135.212386 
L 164.89642 135.231775 
L 172.494423 135.321424 
L 173.875878 135.36105 
L 174.221242 135.398841 
L 174.566606 135.318611 
L 174.91197 135.404225 
L 175.602697 135.368578 
L 184.236792 135.464924 
L 184.582156 135.362057 
L 185.272884 135.471678 
L 186.654339 135.425028 
L 188.726521 135.459694 
L 190.453341 135.47909 
L 192.18016 135.510859 
L 192.525524 135.589337 
L 192.870888 135.483577 
L 193.216252 135.584255 
L 193.906978 135.495154 
L 194.597706 135.583479 
L 194.94307 135.489872 
L 196.669889 135.607609 
L 197.015253 135.50915 
L 198.051345 135.561196 
L 207.376167 135.625288 
L 207.721531 135.544245 
L 208.066895 135.666717 
L 209.102986 135.600274 
L 209.44835 135.658624 
L 209.793713 135.572457 
L 210.139076 135.697922 
L 210.829804 135.644888 
L 211.865896 135.683223 
L 212.21126 135.642027 
L 212.21126 135.642027 
" clip-path="url(#pe7199f9437)" style="fill: none; stroke: #d55e00; stroke-width: 0.85; stroke-linecap: square"/>
   </g>
   <g id="line2d_13">
    <path d="M 22.606535 9.911901 
L 22.951899 49.135729 
L 23.297263 65.948291 
L 23.987991 82.702288 
L 24.678718 91.5597 
L 25.369446 97.244769 
L 26.060173 101.350518 
L 27.096265 105.695188 
L 27.786992 107.847322 
L 29.513811 111.761223 
L 30.549903 113.562498 
L 32.967449 116.528741 
L 35.73036 118.897074 
L 39.183998 121.021993 
L 39.874725 121.360199 
L 46.436637 123.818848 
L 51.962458 125.232166 
L 52.307822 125.216482 
L 52.99855 125.444006 
L 54.034641 125.575847 
L 54.725369 125.816323 
L 57.142915 126.207385 
L 57.833643 126.343579 
L 58.869734 126.510799 
L 59.560462 126.652157 
L 71.648194 128.231031 
L 71.993558 128.126787 
L 78.900834 128.830399 
L 79.246198 128.742678 
L 79.936926 128.95455 
L 81.318381 128.998556 
L 83.735927 129.162309 
L 85.462746 129.328993 
L 85.80811 129.301357 
L 86.498838 129.459238 
L 87.534929 129.452366 
L 92.024659 129.735647 
L 92.370022 129.812269 
L 93.406114 129.768769 
L 94.096841 129.904274 
L 94.442205 129.831524 
L 95.132933 129.923595 
L 97.550479 129.986895 
L 97.895843 130.116422 
L 98.241207 130.059667 
L 98.586571 130.136968 
L 98.931934 130.054582 
L 99.622662 130.176716 
L 99.968026 130.137221 
L 100.31339 130.24277 
L 101.004117 130.214799 
L 101.694845 130.272509 
L 104.112392 130.37839 
L 104.803119 130.466413 
L 105.148483 130.403124 
L 106.184574 130.523785 
L 106.529938 130.476265 
L 107.220666 130.544284 
L 115.854761 130.901358 
L 116.200124 130.832997 
L 116.545488 130.978704 
L 116.890852 130.889076 
L 117.58158 130.966065 
L 117.926943 130.915931 
L 118.617671 131.046199 
L 119.308398 131.065885 
L 121.035217 131.050951 
L 121.725945 131.080787 
L 129.669312 131.389831 
L 130.014676 131.307533 
L 130.36004 131.416499 
L 131.050768 131.367542 
L 132.432223 131.509613 
L 137.958044 131.644447 
L 138.994135 131.70852 
L 140.37559 131.736449 
L 141.066318 131.737201 
L 141.757045 131.730321 
L 143.138501 131.760658 
L 143.829228 131.795838 
L 145.556047 131.753179 
L 145.901411 131.894458 
L 146.592138 131.880431 
L 149.355049 132.002588 
L 149.700413 131.901303 
L 151.081868 132.003583 
L 151.427232 131.930242 
L 152.463323 132.017153 
L 157.989144 132.114145 
L 159.370599 132.222309 
L 160.061326 132.143447 
L 161.097418 132.189269 
L 162.133509 132.136644 
L 162.478873 132.292788 
L 163.169601 132.277783 
L 170.42224 132.389782 
L 170.767604 132.455884 
L 171.458332 132.429519 
L 172.839787 132.445064 
L 173.530515 132.483525 
L 176.638789 132.494986 
L 177.67488 132.583316 
L 179.056335 132.547766 
L 179.401699 132.61887 
L 179.747063 132.490665 
L 181.128519 132.635591 
L 182.509973 132.532227 
L 182.855336 132.701077 
L 183.546064 132.6621 
L 184.582156 132.70816 
L 185.272884 132.638554 
L 185.963612 132.692887 
L 189.762613 132.724447 
L 191.144068 132.822696 
L 191.834796 132.772022 
L 193.906978 132.800874 
L 194.597706 132.894335 
L 195.288434 132.835992 
L 197.015253 132.894044 
L 204.95862 132.978175 
L 205.303983 133.052772 
L 205.994711 132.982218 
L 208.412259 133.045918 
L 209.102986 133.015201 
L 210.48444 133.070337 
L 212.21126 133.06563 
L 212.21126 133.06563 
" clip-path="url(#pe7199f9437)" style="fill: none; stroke: #009e73; stroke-width: 0.85; stroke-linecap: square"/>
   </g>
   <g id="patch_3">
    <path d="M 22.29 138.222992 
L 22.29 2.16 
" style="fill: none; stroke: #000000; stroke-width: 0.8; stroke-linejoin: miter; stroke-linecap: square"/>
   </g>
   <g id="patch_4">
    <path d="M 212.21126 138.222992 
L 212.21126 2.16 
" style="fill: none; stroke: #000000; stroke-width: 0.8; stroke-linejoin: miter; stroke-linecap: square"/>
   </g>
   <g id="patch_5">
    <path d="M 22.29 138.222992 
L 212.21126 138.222992 
" style="fill: none; stroke: #000000; stroke-width: 0.8; stroke-linejoin: miter; stroke-linecap: square"/>
   </g>
   <g id="patch_6">
    <path d="M 22.29 2.16 
L 212.21126 2.16 
" style="fill: none; stroke: #000000; stroke-width: 0.8; stroke-linejoin: miter; stroke-linecap: square"/>
   </g>
   <g id="legend_1">
    <g id="line2d_14">
     <path d="M 175.01536 5.680125 
L 180.96536 5.680125 
L 186.91536 5.680125 
" style="fill: none; stroke: #0072b2; stroke-width: 0.85; stroke-linecap: square"/>
    </g>
    <g id="text_13">
     <!-- 0.5 mM -->
     <g transform="translate(190.48536 7.814075) scale(0.0616 -0.0616)">
      <defs>
       <path id="LiberationSans-4d" d="M 4269 0 
L 4269 2938 
Q 4269 3425 4297 3875 
Q 4144 3316 4022 3000 
L 2884 0 
L 2466 0 
L 1313 3000 
L 1138 3531 
L 1034 3875 
L 1044 3528 
L 1056 2938 
L 1056 0 
L 525 0 
L 525 4403 
L 1309 4403 
L 2481 1350 
Q 2544 1166 2601 955 
Q 2659 744 2678 650 
Q 2703 775 2783 1029 
Q 2863 1284 2891 1350 
L 4041 4403 
L 4806 4403 
L 4806 0 
L 4269 0 
z
" transform="scale(0.015625)"/>
      </defs>
      <use xlink:href="#LiberationSans-30"/>
      <use xlink:href="#LiberationSans-2e" x="55.615234"/>
      <use xlink:href="#LiberationSans-35" x="83.398438"/>
      <use xlink:href="#LiberationSans-20" x="139.013672"/>
      <use xlink:href="#LiberationSans-6d" x="166.796875"/>
      <use xlink:href="#LiberationSans-4d" x="250.097656"/>
     </g>
    </g>
    <g id="line2d_15">
     <path d="M 175.01536 13.2074 
L 180.96536 13.2074 
L 186.91536 13.2074 
" style="fill: none; stroke: #d55e00; stroke-width: 0.85; stroke-linecap: square"/>
    </g>
    <g id="text_14">
     <!-- 1 mM -->
     <g transform="translate(190.48536 15.34135) scale(0.0616 -0.0616)">
      <use xlink:href="#LiberationSans-31"/>
      <use xlink:href="#LiberationSans-20" x="55.615234"/>
      <use xlink:href="#LiberationSans-6d" x="83.398438"/>
      <use xlink:href="#LiberationSans-4d" x="166.699219"/>
     </g>
    </g>
    <g id="line2d_16">
     <path d="M 175.01536 20.734675 
L 180.96536 20.734675 
L 186.91536 20.734675 
" style="fill: none; stroke: #009e73; stroke-width: 0.85; stroke-linecap: square"/>
    </g>
    <g id="text_15">
     <!-- 2 mM -->
     <g transform="translate(190.48536 22.868625) scale(0.0616 -0.0616)">
      <use xlink:href="#LiberationSans-32"/>
      <use xlink:href="#LiberationSans-20" x="55.615234"/>
      <use xlink:href="#LiberationSans-6d" x="83.398438"/>
      <use xlink:href="#LiberationSans-4d" x="166.699219"/>
     </g>
    </g>
   </g>
  </g>
 </g>
 <defs>
  <clipPath id="pe7199f9437">
   <rect x="22.29" y="2.16" width="189.92126" height="136.062992"/>
  </clipPath>
 </defs>
</svg>
